<?xml version="1.0" encoding="utf-8"?>
<!-- Generator: Adobe Illustrator 27.5.0, SVG Export Plug-In . SVG Version: 6.00 Build 0)  -->
<svg version="1.1" id="Слой_2" xmlns="http://www.w3.org/2000/svg" xmlns:xlink="http://www.w3.org/1999/xlink" x="0px" y="0px"
	 viewBox="0 0 3200 2000" style="enable-background:new 0 0 3200 2000;" xml:space="preserve">
<rect style="fill:#FFFFFF;" width="3200" height="2000"/>
<g>
	<path style="fill:#EDF4FF;" d="M2957.032,1272.633c-0.119,5.874-0.239,11.743-0.599,17.494c-0.24,5.752-0.48,11.387-0.959,17.139
		c-1.678,24.686-4.674,48.651-8.627,71.541c-1.199,6.828-2.397,13.539-3.715,20.128c-0.24,1.557-0.6,3.118-0.84,4.552l-0.239,0.843
		c-0.839,4.072-1.678,8.028-2.517,12.101c-1.558,7.067-3.234,14.142-4.913,20.97c-0.359,1.322-0.719,2.517-0.958,3.839
		c-4.555,17.975-9.467,34.866-14.619,50.688c-0.84,2.633-1.678,5.272-2.518,7.905c-2.276,6.951-4.553,13.539-6.83,20.011
		c-1.678,4.675-3.355,9.11-4.912,13.422c-8.749,23.247-17.256,42.544-24.087,57.16c-6.351,13.539-11.743,24.926-14.499,30.678
		c-1.198,2.516-1.918,3.955-1.918,3.955s-1328.562,0.239-2061.925,0.356c-279.565,0-472.612,0-472.612,0
		c0-0.117-0.12-0.117-0.12-0.117c-1.678-1.316-3.235-2.516-4.792-3.832c-0.12,0-0.12,0-0.12,0c-0.719-0.603-1.438-1.083-2.038-1.68
		l-34.871-37.745c-7.669-10.906-13.9-22.533-18.693-34.633c-9.227-22.526-13.661-46.973-13.661-72.501c0-1.193,0-2.517,0.12-3.833
		c0-2.275,0.12-4.675,0.12-6.951c0.12-2.035,0.24-4.072,0.359-6.108c0.6-7.431,1.438-14.861,2.637-22.286
		c0-0.246,0.12-0.48,0.12-0.72c0.239-1.2,0.479-2.522,0.599-3.839c0.24-1.557,0.599-3.112,0.959-4.675
		c1.078-5.512,2.396-11.023,3.834-16.652c0.239-1.322,0.599-2.639,0.958-3.955c0.48-1.557,0.839-3.113,1.438-4.675
		c1.319-4.909,2.996-9.824,4.673-14.856c3.236-9.59,7.07-19.174,11.384-28.881c0.24-0.72,0.599-1.557,0.959-2.276
		c3.954-8.747,8.268-17.378,12.941-26.125c7.07-13.177,15.099-26.242,23.846-39.185c1.918-2.756,3.835-5.512,5.753-8.146
		c9.706-13.779,20.371-27.324,31.995-40.624c14.02-16.178,29.358-32.116,45.895-47.452c3.714-3.476,7.429-6.834,11.144-10.187
		c0.839-0.72,1.678-1.439,2.517-2.276c2.157-1.796,4.314-3.716,6.471-5.512c9.107-7.911,17.975-15.342,26.722-22.527
		c4.434-3.598,8.748-7.073,13.062-10.549c8.507-6.828,16.776-13.54,24.685-20.011c24.325-20.011,45.895-38.822,62.911-60.032
		c5.872-7.191,11.144-14.739,15.818-22.533c8.507-14.259,15.099-29.712,19.413-47.212c0.958-4.429,1.917-8.987,2.636-13.656
		c2.157-12.703,3.236-26.482,2.876-41.584c-0.119-11.86-1.078-24.686-2.876-38.348c-0.359-2.873-0.839-5.869-1.318-8.987
		c-2.517-16.892-6.351-35.229-11.504-55.24c-1.438-5.629-2.996-11.38-4.673-17.255c-2.877-10.187-5.153-20.251-6.951-30.075
		c-3.475-19.057-4.914-37.389-4.673-55.246c0.12-16.172,1.678-31.871,4.673-46.973v-0.24c2.636-14.377,6.471-28.279,11.144-41.701
		c57.399-163.207,252.724-259.672,304.609-281.242c73.936-30.797,161.532-48.052,252.483-54.4c7.43-0.48,14.859-0.96,22.288-1.32
		c20.971-1.079,42.181-1.559,63.271-1.559c8.627,0,17.136,0.123,25.644,0.24c14.26,0.36,28.4,0.84,42.66,1.679
		c13.181,0.72,26.243,1.557,39.304,2.636c54.164,4.555,107.009,12.223,156.14,22.53c44.697,9.344,84.959,21.087,121.628,34.629
		c0,0,0,0,0.12,0.12c86.518,31.994,151.944,73.814,204.191,117.315c12.103,10.063,23.606,20.25,34.392,30.437
		c1.438,1.317,2.995,2.756,4.434,4.192c3.354,3.116,6.59,6.232,9.826,9.467c1.438,1.437,2.996,2.875,4.434,4.315
		c9.467,9.464,18.574,18.932,27.201,28.159c4.314,4.672,8.628,9.347,12.822,13.899c22.768,25.166,42.899,48.652,62.072,68.902
		c2.396,2.639,4.793,5.032,7.189,7.548c32.954,33.556,63.511,56.323,100.897,58.839c23.487,1.557,50.928-2.399,81.725-8.391
		c3.116-0.597,6.111-1.193,9.228-1.913c47.332-9.467,102.455-22.89,163.688-28.519c79.087-7.313,168.602-1.562,265.185,42.298
		c3.116,1.439,6.111,2.879,9.228,4.313c14.14,6.834,28.399,14.382,42.78,22.889c2.995,1.679,5.991,3.476,8.986,5.272
		c14.619,8.987,29.479,18.934,44.457,29.957c0.359,0.24,0.719,0.48,1.078,0.843c6.471,4.669,12.941,9.701,19.413,14.856
		c7.55,5.991,15.219,12.223,22.888,18.811c18.454,15.938,37.268,33.433,56.08,52.847c13.661,14.02,26.363,28.162,37.867,42.538
		c8.028,9.83,15.578,19.777,22.528,29.724c1.317,1.796,2.516,3.593,3.835,5.389c11.982,17.618,22.767,35.352,32.354,53.204
		c1.078,2.159,2.276,4.435,3.476,6.594c12.582,24.686,23.007,49.489,31.275,74.174c0.719,2.153,1.438,4.189,2.157,6.231
		c3.594,11.141,6.71,22.287,9.586,33.433c3.835,15.22,6.95,30.315,9.467,45.411
		C2955.475,1198.341,2957.752,1236.203,2957.032,1272.633z"/>
	<g>
		<g>
			<path style="fill:#C4D9ED;" d="M757.661,685.462v818.084H589.419V979.17c2.157-12.703,3.236-26.482,2.876-41.584
				c-0.119-11.86-1.078-24.686-2.876-38.348V685.462H757.661z"/>
			<path style="fill:#D5E7F7;" d="M719.794,685.462v818.084H551.552v-440.975c5.872-7.191,11.144-14.739,15.818-22.533
				c8.507-14.259,15.099-29.712,19.413-47.212c0.958-4.429,1.917-8.987,2.636-13.656c2.157-12.703,3.236-26.482,2.876-41.584
				c-0.119-11.86-1.078-24.686-2.876-38.348c-0.359-2.873-0.839-5.869-1.318-8.987c-2.517-16.892-6.351-35.229-11.504-55.24
				c-1.438-5.629-2.996-11.38-4.673-17.255c-2.877-10.187-5.153-20.251-6.951-30.075c-3.475-19.057-4.914-37.389-4.673-55.246
				c0.12-16.172,1.678-31.871,4.673-46.973H719.794z"/>
			<path style="fill:#C4D9ED;" d="M564.973,685.464c-2.996,15.099-4.553,30.796-4.673,46.974h29.119h130.375v-46.974v-0.24H564.973
				V685.464z"/>
			<path style="fill:#C4D9ED;" d="M719.794,787.681v47.329H576.597c-1.438-5.629-2.996-11.38-4.673-17.255
				c-2.877-10.187-5.153-20.251-6.951-30.075H719.794z"/>
			<path style="fill:#C4D9ED;" d="M719.794,890.251v47.335h-127.5c-0.119-11.86-1.078-24.686-2.876-38.348
				c-0.359-2.873-0.839-5.869-1.318-8.987H719.794z"/>
			<path style="fill:#C4D9ED;" d="M719.794,992.827v47.212H567.37c8.507-14.259,15.099-29.712,19.413-47.212H719.794z"/>
			<rect x="551.606" y="1095.33" style="fill:#C4D9ED;" width="168.188" height="47.273"/>
			<rect x="551.606" y="1197.86" style="fill:#C4D9ED;" width="168.188" height="47.273"/>
			<rect x="551.606" y="1300.391" style="fill:#C4D9ED;" width="168.188" height="47.273"/>
			<rect x="551.606" y="1402.921" style="fill:#C4D9ED;" width="168.188" height="47.274"/>
		</g>
		<g>
			<path style="fill:#C4D9ED;" d="M488.641,1122.604v380.942H320.398v-213.659c1.918-2.756,3.835-5.512,5.753-8.146
				c9.706-13.779,20.371-27.324,31.995-40.624c14.02-16.178,29.358-32.116,45.895-47.452c3.714-3.476,7.429-6.834,11.144-10.187
				c0.839-0.72,1.678-1.439,2.517-2.276c2.157-1.796,4.314-3.716,6.471-5.512c9.107-7.911,17.975-15.342,26.722-22.527
				c4.434-3.598,8.748-7.073,13.062-10.549C472.463,1135.787,480.732,1129.075,488.641,1122.604z"/>
			<path style="fill:#D5E7F7;" d="M450.895,1153.164v350.383H282.652v-146.073c0.24-0.72,0.599-1.557,0.959-2.276
				c3.954-8.747,8.268-17.378,12.941-26.125c7.07-13.177,15.099-26.242,23.846-39.185c1.918-2.756,3.835-5.512,5.753-8.146
				c9.706-13.779,20.371-27.324,31.995-40.624c14.02-16.178,29.358-32.116,45.895-47.452c3.714-3.476,7.429-6.834,11.144-10.187
				c0.839-0.72,1.678-1.439,2.517-2.276c2.157-1.796,4.314-3.716,6.471-5.512C433.279,1167.78,442.147,1160.35,450.895,1153.164z"/>
			<path style="fill:#C4D9ED;" d="M450.895,1153.164v40.502h-46.854c3.714-3.476,7.429-6.834,11.144-10.187
				c0.839-0.72,1.678-1.439,2.517-2.276c2.157-1.796,4.314-3.716,6.471-5.512C433.279,1167.78,442.147,1160.35,450.895,1153.164z"/>
			<path style="fill:#C4D9ED;" d="M450.895,1241.118v40.624H326.151c9.706-13.779,20.371-27.324,31.995-40.624H450.895z"/>
			<path style="fill:#C4D9ED;" d="M450.895,1329.072v40.624H282.652v-12.223c0.24-0.72,0.599-1.557,0.959-2.276
				c3.954-8.747,8.268-17.378,12.941-26.125H450.895z"/>
			<rect x="282.672" y="1417.156" style="fill:#C4D9ED;" width="168.188" height="40.584"/>
		</g>
		<rect x="778.223" y="1478.426" style="fill:#DCEAF9;" width="70.447" height="102.728"/>
		<polygon style="fill:#D5E7F7;" points="1814.762,1070.109 1814.762,1006.662 1795.501,1006.662 1795.501,897.568 
			1692.233,897.568 1692.233,1006.662 1595.686,1006.662 1595.686,828.896 1489.146,828.896 1489.146,944.294 1464.851,944.294 
			1464.851,806.523 1358.311,806.523 1358.311,1064.834 1223.57,1064.834 1223.57,1215.463 1173.225,1215.463 1173.225,1253.41 
			1057.585,1253.41 1057.585,1188.066 991.191,1188.066 991.191,1010.509 909.175,1010.509 909.175,1338.279 827.159,1338.279 
			827.159,1623.492 909.175,1623.492 979.475,1623.492 991.191,1623.492 1057.585,1623.492 1095.115,1623.492 1155.223,1623.492 
			1173.225,1623.492 1223.57,1623.492 1270.863,1623.492 1358.311,1623.492 1385.092,1623.492 1438.374,1623.492 1464.851,1623.492 
			1489.146,1623.492 1544.914,1623.492 1582.878,1623.492 1595.686,1623.492 1692.233,1623.492 1793.776,1623.492 
			1795.501,1623.492 1814.762,1623.492 1897.044,1623.492 1897.044,1070.109 		"/>
		<rect x="1358.252" y="823.96" style="fill:#C4D9ED;" width="106.598" height="26.319"/>
		<rect x="1358.252" y="873.404" style="fill:#C4D9ED;" width="106.598" height="26.319"/>
		<rect x="1358.252" y="917.888" style="fill:#C4D9ED;" width="106.598" height="26.319"/>
		<rect x="1489.057" y="917.888" style="fill:#C4D9ED;" width="106.598" height="26.319"/>
		<rect x="1489.057" y="873.404" style="fill:#C4D9ED;" width="106.598" height="26.319"/>
		<rect x="1489.057" y="828.989" style="fill:#C4D9ED;" width="106.598" height="26.319"/>
		<rect x="1358.252" y="961.019" style="fill:#C4D9ED;" width="237.433" height="26.319"/>
		<rect x="1358.252" y="1004.149" style="fill:#C4D9ED;" width="237.433" height="26.319"/>
		<rect x="909.211" y="1010.526" style="fill:#C4D9ED;" width="82.737" height="40.626"/>
		<rect x="909.211" y="1070.944" style="fill:#C4D9ED;" width="82.737" height="40.626"/>
		<rect x="909.211" y="1131.362" style="fill:#C4D9ED;" width="82.737" height="40.626"/>
		<rect x="909.211" y="1194.694" style="fill:#C4D9ED;" width="82.737" height="40.626"/>
		<rect x="909.211" y="1256.064" style="fill:#C4D9ED;" width="82.737" height="40.626"/>
		<rect x="909.211" y="1317.434" style="fill:#C4D9ED;" width="82.737" height="40.626"/>
		<rect x="909.211" y="1381.64" style="fill:#C4D9ED;" width="82.737" height="40.626"/>
		<rect x="1358.252" y="1046.303" style="fill:#C4D9ED;" width="237.433" height="16.707"/>
		<rect x="990.799" y="1010.526" style="fill:#C4D9ED;" width="30.506" height="177.54"/>
		<rect x="1057.585" y="1188.066" style="fill:#C4D9ED;" width="61.364" height="65.344"/>
		<polygon style="fill:#C4D9ED;" points="1595.655,828.989 1616.834,828.989 1616.834,1006.662 1595.686,1006.662 		"/>
		<rect x="1464.851" y="806.523" style="fill:#C4D9ED;" width="13.001" height="137.684"/>
		<g style="opacity:0.8;">
			<g>
				<g>
					<g>
						<rect x="1245.586" y="1090.752" style="fill:#C4D9ED;" width="18.061" height="25.457"/>
						<rect x="1279.361" y="1090.752" style="fill:#C4D9ED;" width="18.061" height="25.457"/>
						<rect x="1312.379" y="1090.752" style="fill:#C4D9ED;" width="18.061" height="25.457"/>
						<rect x="1343.685" y="1090.752" style="fill:#C4D9ED;" width="18.061" height="25.457"/>
						<rect x="1375.592" y="1090.752" style="fill:#C4D9ED;" width="18.061" height="25.457"/>
					</g>
					<g>
						<rect x="1407.865" y="1090.752" style="fill:#C4D9ED;" width="18.061" height="25.457"/>
						<rect x="1441.639" y="1090.752" style="fill:#C4D9ED;" width="18.061" height="25.457"/>
						<rect x="1474.657" y="1090.752" style="fill:#C4D9ED;" width="18.062" height="25.457"/>
						<rect x="1505.964" y="1090.752" style="fill:#C4D9ED;" width="18.06" height="25.457"/>
						<rect x="1537.871" y="1090.752" style="fill:#C4D9ED;" width="18.061" height="25.457"/>
					</g>
				</g>
				<g>
					<g>
						<rect x="1571.121" y="1090.752" style="fill:#C4D9ED;" width="18.06" height="25.457"/>
						<rect x="1604.896" y="1090.752" style="fill:#C4D9ED;" width="18.061" height="25.457"/>
						<rect x="1637.913" y="1090.752" style="fill:#C4D9ED;" width="18.062" height="25.457"/>
						<rect x="1669.22" y="1090.752" style="fill:#C4D9ED;" width="18.061" height="25.457"/>
						<rect x="1701.127" y="1090.752" style="fill:#C4D9ED;" width="18.06" height="25.457"/>
					</g>
					<g>
						<rect x="1733.399" y="1090.752" style="fill:#C4D9ED;" width="18.062" height="25.457"/>
						<rect x="1767.174" y="1090.752" style="fill:#C4D9ED;" width="18.061" height="25.457"/>
						<rect x="1800.192" y="1090.752" style="fill:#C4D9ED;" width="18.06" height="25.457"/>
						<rect x="1831.498" y="1090.752" style="fill:#C4D9ED;" width="18.062" height="25.457"/>
						<rect x="1863.405" y="1090.752" style="fill:#C4D9ED;" width="18.062" height="25.457"/>
					</g>
				</g>
			</g>
			<g>
				<g>
					<g>
						<rect x="1245.586" y="1135.675" style="fill:#C4D9ED;" width="18.061" height="25.456"/>
						<rect x="1279.361" y="1135.675" style="fill:#C4D9ED;" width="18.061" height="25.456"/>
						<rect x="1312.379" y="1135.675" style="fill:#C4D9ED;" width="18.061" height="25.456"/>
						<rect x="1343.685" y="1135.675" style="fill:#C4D9ED;" width="18.061" height="25.456"/>
						<rect x="1375.592" y="1135.675" style="fill:#C4D9ED;" width="18.061" height="25.456"/>
					</g>
					<g>
						<rect x="1407.865" y="1135.675" style="fill:#C4D9ED;" width="18.061" height="25.456"/>
						<rect x="1441.639" y="1135.675" style="fill:#C4D9ED;" width="18.061" height="25.456"/>
						<rect x="1474.657" y="1135.675" style="fill:#C4D9ED;" width="18.062" height="25.456"/>
						<rect x="1505.964" y="1135.675" style="fill:#C4D9ED;" width="18.06" height="25.456"/>
						<rect x="1537.871" y="1135.675" style="fill:#C4D9ED;" width="18.061" height="25.456"/>
					</g>
				</g>
				<g>
					<g>
						<rect x="1571.121" y="1135.675" style="fill:#C4D9ED;" width="18.06" height="25.456"/>
						<rect x="1604.896" y="1135.675" style="fill:#C4D9ED;" width="18.061" height="25.456"/>
						<rect x="1637.913" y="1135.675" style="fill:#C4D9ED;" width="18.062" height="25.456"/>
						<rect x="1669.22" y="1135.675" style="fill:#C4D9ED;" width="18.061" height="25.456"/>
						<rect x="1701.127" y="1135.675" style="fill:#C4D9ED;" width="18.06" height="25.456"/>
					</g>
					<g>
						<rect x="1733.399" y="1135.675" style="fill:#C4D9ED;" width="18.062" height="25.456"/>
						<rect x="1767.174" y="1135.675" style="fill:#C4D9ED;" width="18.061" height="25.456"/>
						<rect x="1800.192" y="1135.675" style="fill:#C4D9ED;" width="18.06" height="25.456"/>
						<rect x="1831.498" y="1135.675" style="fill:#C4D9ED;" width="18.062" height="25.456"/>
						<rect x="1863.405" y="1135.675" style="fill:#C4D9ED;" width="18.062" height="25.456"/>
					</g>
				</g>
			</g>
			<g>
				<g>
					<g>
						<rect x="1245.586" y="1179.908" style="fill:#C4D9ED;" width="18.061" height="25.457"/>
						<rect x="1279.361" y="1179.908" style="fill:#C4D9ED;" width="18.061" height="25.457"/>
						<rect x="1312.379" y="1179.908" style="fill:#C4D9ED;" width="18.061" height="25.457"/>
						<rect x="1343.685" y="1179.908" style="fill:#C4D9ED;" width="18.061" height="25.457"/>
						<rect x="1375.592" y="1179.908" style="fill:#C4D9ED;" width="18.061" height="25.457"/>
					</g>
					<g>
						<rect x="1407.865" y="1179.908" style="fill:#C4D9ED;" width="18.061" height="25.457"/>
						<rect x="1441.639" y="1179.908" style="fill:#C4D9ED;" width="18.061" height="25.457"/>
						<rect x="1474.657" y="1179.908" style="fill:#C4D9ED;" width="18.062" height="25.457"/>
						<rect x="1505.964" y="1179.908" style="fill:#C4D9ED;" width="18.06" height="25.457"/>
						<rect x="1537.871" y="1179.908" style="fill:#C4D9ED;" width="18.061" height="25.457"/>
					</g>
				</g>
				<g>
					<g>
						<rect x="1571.121" y="1179.908" style="fill:#C4D9ED;" width="18.06" height="25.457"/>
						<rect x="1604.896" y="1179.908" style="fill:#C4D9ED;" width="18.061" height="25.457"/>
						<rect x="1637.913" y="1179.908" style="fill:#C4D9ED;" width="18.062" height="25.457"/>
						<rect x="1669.22" y="1179.908" style="fill:#C4D9ED;" width="18.061" height="25.457"/>
						<rect x="1701.127" y="1179.908" style="fill:#C4D9ED;" width="18.06" height="25.457"/>
					</g>
					<g>
						<rect x="1733.399" y="1179.908" style="fill:#C4D9ED;" width="18.062" height="25.457"/>
						<rect x="1767.174" y="1179.908" style="fill:#C4D9ED;" width="18.061" height="25.457"/>
						<rect x="1800.192" y="1179.908" style="fill:#C4D9ED;" width="18.06" height="25.457"/>
						<rect x="1831.498" y="1179.908" style="fill:#C4D9ED;" width="18.062" height="25.457"/>
						<rect x="1863.405" y="1179.908" style="fill:#C4D9ED;" width="18.062" height="25.457"/>
					</g>
				</g>
			</g>
			<g>
				<g>
					<g>
						<g>
							<rect x="1245.586" y="1226.906" style="fill:#C4D9ED;" width="18.061" height="25.457"/>
							<rect x="1279.361" y="1226.906" style="fill:#C4D9ED;" width="18.061" height="25.457"/>
							<rect x="1312.379" y="1226.906" style="fill:#C4D9ED;" width="18.061" height="25.457"/>
							<rect x="1343.685" y="1226.906" style="fill:#C4D9ED;" width="18.061" height="25.457"/>
							<rect x="1375.592" y="1226.906" style="fill:#C4D9ED;" width="18.061" height="25.457"/>
						</g>
						<g>
							<rect x="1407.865" y="1226.906" style="fill:#C4D9ED;" width="18.061" height="25.457"/>
							<rect x="1441.639" y="1226.906" style="fill:#C4D9ED;" width="18.061" height="25.457"/>
							<rect x="1474.657" y="1226.906" style="fill:#C4D9ED;" width="18.062" height="25.457"/>
							<rect x="1505.964" y="1226.906" style="fill:#C4D9ED;" width="18.06" height="25.457"/>
							<rect x="1537.871" y="1226.906" style="fill:#C4D9ED;" width="18.061" height="25.457"/>
						</g>
					</g>
					<g>
						<g>
							<rect x="1571.121" y="1226.906" style="fill:#C4D9ED;" width="18.06" height="25.457"/>
							<rect x="1604.896" y="1226.906" style="fill:#C4D9ED;" width="18.061" height="25.457"/>
							<rect x="1637.913" y="1226.906" style="fill:#C4D9ED;" width="18.062" height="25.457"/>
							<rect x="1669.22" y="1226.906" style="fill:#C4D9ED;" width="18.061" height="25.457"/>
							<rect x="1701.127" y="1226.906" style="fill:#C4D9ED;" width="18.06" height="25.457"/>
						</g>
						<g>
							<rect x="1733.399" y="1226.906" style="fill:#C4D9ED;" width="18.062" height="25.457"/>
							<rect x="1767.174" y="1226.906" style="fill:#C4D9ED;" width="18.061" height="25.457"/>
							<rect x="1800.192" y="1226.906" style="fill:#C4D9ED;" width="18.06" height="25.457"/>
							<rect x="1831.498" y="1226.906" style="fill:#C4D9ED;" width="18.062" height="25.457"/>
							<rect x="1863.405" y="1226.906" style="fill:#C4D9ED;" width="18.062" height="25.457"/>
						</g>
					</g>
				</g>
				<g>
					<g>
						<g>
							<rect x="1245.586" y="1271.828" style="fill:#C4D9ED;" width="18.061" height="25.457"/>
							<rect x="1279.361" y="1271.828" style="fill:#C4D9ED;" width="18.061" height="25.457"/>
							<rect x="1312.379" y="1271.828" style="fill:#C4D9ED;" width="18.061" height="25.457"/>
							<rect x="1343.685" y="1271.828" style="fill:#C4D9ED;" width="18.061" height="25.457"/>
							<rect x="1375.592" y="1271.828" style="fill:#C4D9ED;" width="18.061" height="25.457"/>
						</g>
						<g>
							<rect x="1407.865" y="1271.828" style="fill:#C4D9ED;" width="18.061" height="25.457"/>
							<rect x="1441.639" y="1271.828" style="fill:#C4D9ED;" width="18.061" height="25.457"/>
							<rect x="1474.657" y="1271.828" style="fill:#C4D9ED;" width="18.062" height="25.457"/>
							<rect x="1505.964" y="1271.828" style="fill:#C4D9ED;" width="18.06" height="25.457"/>
							<rect x="1537.871" y="1271.828" style="fill:#C4D9ED;" width="18.061" height="25.457"/>
						</g>
					</g>
					<g>
						<g>
							<rect x="1571.121" y="1271.828" style="fill:#C4D9ED;" width="18.06" height="25.457"/>
							<rect x="1604.896" y="1271.828" style="fill:#C4D9ED;" width="18.061" height="25.457"/>
							<rect x="1637.913" y="1271.828" style="fill:#C4D9ED;" width="18.062" height="25.457"/>
							<rect x="1669.22" y="1271.828" style="fill:#C4D9ED;" width="18.061" height="25.457"/>
							<rect x="1701.127" y="1271.828" style="fill:#C4D9ED;" width="18.06" height="25.457"/>
						</g>
						<g>
							<rect x="1733.399" y="1271.828" style="fill:#C4D9ED;" width="18.062" height="25.457"/>
							<rect x="1767.174" y="1271.828" style="fill:#C4D9ED;" width="18.061" height="25.457"/>
							<rect x="1800.192" y="1271.828" style="fill:#C4D9ED;" width="18.06" height="25.457"/>
							<rect x="1831.498" y="1271.828" style="fill:#C4D9ED;" width="18.062" height="25.457"/>
							<rect x="1863.405" y="1271.828" style="fill:#C4D9ED;" width="18.062" height="25.457"/>
						</g>
					</g>
				</g>
				<g>
					<g>
						<g>
							<rect x="1245.586" y="1316.063" style="fill:#C4D9ED;" width="18.061" height="25.457"/>
							<rect x="1279.361" y="1316.063" style="fill:#C4D9ED;" width="18.061" height="25.457"/>
							<rect x="1312.379" y="1316.063" style="fill:#C4D9ED;" width="18.061" height="25.457"/>
							<rect x="1343.685" y="1316.063" style="fill:#C4D9ED;" width="18.061" height="25.457"/>
							<rect x="1375.592" y="1316.063" style="fill:#C4D9ED;" width="18.061" height="25.457"/>
						</g>
						<g>
							<rect x="1407.865" y="1316.063" style="fill:#C4D9ED;" width="18.061" height="25.457"/>
							<rect x="1441.639" y="1316.063" style="fill:#C4D9ED;" width="18.061" height="25.457"/>
							<rect x="1474.657" y="1316.063" style="fill:#C4D9ED;" width="18.062" height="25.457"/>
							<rect x="1505.964" y="1316.063" style="fill:#C4D9ED;" width="18.06" height="25.457"/>
							<rect x="1537.871" y="1316.063" style="fill:#C4D9ED;" width="18.061" height="25.457"/>
						</g>
					</g>
					<g>
						<g>
							<rect x="1571.121" y="1316.063" style="fill:#C4D9ED;" width="18.06" height="25.457"/>
							<rect x="1604.896" y="1316.063" style="fill:#C4D9ED;" width="18.061" height="25.457"/>
							<rect x="1637.913" y="1316.063" style="fill:#C4D9ED;" width="18.062" height="25.457"/>
							<rect x="1669.22" y="1316.063" style="fill:#C4D9ED;" width="18.061" height="25.457"/>
							<rect x="1701.127" y="1316.063" style="fill:#C4D9ED;" width="18.06" height="25.457"/>
						</g>
						<g>
							<rect x="1733.399" y="1316.063" style="fill:#C4D9ED;" width="18.062" height="25.457"/>
							<rect x="1767.174" y="1316.063" style="fill:#C4D9ED;" width="18.061" height="25.457"/>
							<rect x="1800.192" y="1316.063" style="fill:#C4D9ED;" width="18.06" height="25.457"/>
							<rect x="1831.498" y="1316.063" style="fill:#C4D9ED;" width="18.062" height="25.457"/>
							<rect x="1863.405" y="1316.063" style="fill:#C4D9ED;" width="18.062" height="25.457"/>
						</g>
					</g>
				</g>
			</g>
		</g>
		<rect x="1118.949" y="1395.818" style="fill:#C4D9ED;" width="418.614" height="225.835"/>
		<rect x="801.524" y="1508.736" style="fill:#C4D9ED;" width="418.614" height="112.917"/>
		<rect x="1571.121" y="1431.009" style="fill:#C4D9ED;" width="418.613" height="190.645"/>
		<rect x="1146.913" y="1422.266" style="fill:#D5E7F7;" width="77.994" height="41.826"/>
		<rect x="1247.03" y="1422.266" style="fill:#D5E7F7;" width="77.994" height="41.826"/>
		<rect x="1345.239" y="1422.266" style="fill:#D5E7F7;" width="77.994" height="41.826"/>
		<rect x="1441.562" y="1422.266" style="fill:#D5E7F7;" width="77.994" height="41.826"/>
		<rect x="1533.212" y="1395.818" style="fill:#ADC9E0;" width="40.18" height="227.779"/>
		<rect x="2031.628" y="1351.768" style="fill:#ADC9E0;" width="40.18" height="271.83"/>
		<rect x="1989.734" y="1431.009" style="fill:#ADC9E0;" width="43.134" height="188.811"/>
		<g>
			<path style="fill:#DCEAF9;" d="M1957.403,1442.238c-1.116,2.994-3.823,4.749-6.048,3.92s-3.123-3.928-2.007-6.923
				c1.115-2.994,9.287-12.613,9.287-12.613S1958.52,1439.243,1957.403,1442.238z"/>
			<path style="fill:#DCEAF9;" d="M1935.457,1368.466c-1.116,2.994-3.824,4.749-6.049,3.92c-2.224-0.829-3.123-3.928-2.007-6.923
				c1.116-2.994,9.288-12.613,9.288-12.613S1936.572,1365.471,1935.457,1368.466z"/>
			<path style="fill:#DCEAF9;" d="M1851.33,1479.707c-1.116,2.994-3.824,4.75-6.048,3.921c-2.225-0.829-3.123-3.929-2.007-6.923
				c1.115-2.994,9.287-12.613,9.287-12.613S1852.446,1476.713,1851.33,1479.707z"/>
		</g>
		<path style="fill:#EBF2F9;" d="M1920.794,1601.554c0,0-7.752,16.728,7.344,17.951c15.097,1.225,24.072-4.896,27.744-12.239
			c0,0-18.768,7.752-15.912-1.633c2.856-9.384,10.2-24.479,10.2-24.479s-15.904,28.572-23.834,27.2
			C1922.8,1607.741,1920.794,1601.554,1920.794,1601.554z"/>
		<rect x="925.678" y="992.846" style="fill:#DCEAF9;" width="2.176" height="17.68"/>
		<rect x="1003.855" y="992.846" style="fill:#DCEAF9;" width="2.176" height="17.68"/>
		<rect x="1802.472" y="1351.106" style="fill:#D5E7F7;" width="230.396" height="268.714"/>
		<rect x="2013.159" y="1297.285" style="fill:#D5E7F7;" width="4.258" height="54.482"/>
		<g>
			<rect x="1802.472" y="1426.521" style="fill:#D5E7F7;" width="287.427" height="193.3"/>
			<rect x="1802.472" y="1401.266" style="fill:#C4D9ED;" width="287.427" height="62.826"/>
			<g>
				<g>
					<g>
						<rect x="1822.042" y="1482.712" style="fill:#C4D9ED;" width="14.762" height="20.807"/>
						<rect x="1849.647" y="1482.712" style="fill:#C4D9ED;" width="14.762" height="20.807"/>
						<rect x="1876.634" y="1482.712" style="fill:#C4D9ED;" width="14.762" height="20.807"/>
						<rect x="1902.221" y="1482.712" style="fill:#C4D9ED;" width="14.762" height="20.807"/>
						<rect x="1928.299" y="1482.712" style="fill:#C4D9ED;" width="14.763" height="20.807"/>
					</g>
					<g>
						<rect x="1954.677" y="1482.712" style="fill:#C4D9ED;" width="14.762" height="20.807"/>
						<rect x="1982.281" y="1482.712" style="fill:#C4D9ED;" width="14.762" height="20.807"/>
						<rect x="2009.268" y="1482.712" style="fill:#C4D9ED;" width="14.762" height="20.807"/>
						<rect x="2034.855" y="1482.712" style="fill:#C4D9ED;" width="14.762" height="20.807"/>
						<rect x="2060.934" y="1482.712" style="fill:#C4D9ED;" width="14.762" height="20.807"/>
					</g>
				</g>
				<g>
					<g>
						<rect x="1822.042" y="1519.428" style="fill:#C4D9ED;" width="14.762" height="20.807"/>
						<rect x="1849.647" y="1519.428" style="fill:#C4D9ED;" width="14.762" height="20.807"/>
						<rect x="1876.634" y="1519.428" style="fill:#C4D9ED;" width="14.762" height="20.807"/>
						<rect x="1902.221" y="1519.428" style="fill:#C4D9ED;" width="14.762" height="20.807"/>
						<rect x="1928.299" y="1519.428" style="fill:#C4D9ED;" width="14.763" height="20.807"/>
					</g>
					<g>
						<rect x="1954.677" y="1519.428" style="fill:#C4D9ED;" width="14.762" height="20.807"/>
						<rect x="1982.281" y="1519.428" style="fill:#C4D9ED;" width="14.762" height="20.807"/>
						<rect x="2009.268" y="1519.428" style="fill:#C4D9ED;" width="14.762" height="20.807"/>
						<rect x="2034.855" y="1519.428" style="fill:#C4D9ED;" width="14.762" height="20.807"/>
						<rect x="2060.934" y="1519.428" style="fill:#C4D9ED;" width="14.762" height="20.807"/>
					</g>
				</g>
				<g>
					<g>
						<rect x="1822.042" y="1555.582" style="fill:#C4D9ED;" width="14.762" height="20.807"/>
						<rect x="1849.647" y="1555.582" style="fill:#C4D9ED;" width="14.762" height="20.807"/>
						<rect x="1876.634" y="1555.582" style="fill:#C4D9ED;" width="14.762" height="20.807"/>
						<rect x="1902.221" y="1555.582" style="fill:#C4D9ED;" width="14.762" height="20.807"/>
						<rect x="1928.299" y="1555.582" style="fill:#C4D9ED;" width="14.763" height="20.807"/>
					</g>
					<g>
						<rect x="1954.677" y="1555.582" style="fill:#C4D9ED;" width="14.762" height="20.807"/>
						<rect x="1982.281" y="1555.582" style="fill:#C4D9ED;" width="14.762" height="20.807"/>
						<rect x="2009.268" y="1555.582" style="fill:#C4D9ED;" width="14.762" height="20.807"/>
						<rect x="2034.855" y="1555.582" style="fill:#C4D9ED;" width="14.762" height="20.807"/>
						<rect x="2060.934" y="1555.582" style="fill:#C4D9ED;" width="14.762" height="20.807"/>
					</g>
				</g>
			</g>
			<rect x="1824.399" y="1418.916" style="fill:#ADC9E0;" width="12.404" height="21.462"/>
			<rect x="1947.551" y="1418.916" style="fill:#ADC9E0;" width="12.404" height="21.462"/>
			<rect x="2045.516" y="1418.916" style="fill:#ADC9E0;" width="12.404" height="21.462"/>
		</g>
		<g>
			<rect x="593.34" y="1426.521" style="fill:#D5E7F7;" width="287.427" height="193.3"/>
			<rect x="593.34" y="1401.266" style="fill:#C4D9ED;" width="287.427" height="62.826"/>
			<g>
				<g>
					<g>
						<rect x="612.91" y="1482.712" style="fill:#C4D9ED;" width="14.762" height="20.807"/>
						<rect x="640.515" y="1482.712" style="fill:#C4D9ED;" width="14.762" height="20.807"/>
						<rect x="667.501" y="1482.712" style="fill:#C4D9ED;" width="14.762" height="20.807"/>
						<rect x="693.089" y="1482.712" style="fill:#C4D9ED;" width="14.762" height="20.807"/>
						<rect x="719.167" y="1482.712" style="fill:#C4D9ED;" width="14.762" height="20.807"/>
					</g>
					<g>
						<rect x="745.544" y="1482.712" style="fill:#C4D9ED;" width="14.762" height="20.807"/>
						<rect x="773.149" y="1482.712" style="fill:#C4D9ED;" width="14.762" height="20.807"/>
						<rect x="800.136" y="1482.712" style="fill:#C4D9ED;" width="14.762" height="20.807"/>
						<rect x="825.723" y="1482.712" style="fill:#C4D9ED;" width="14.762" height="20.807"/>
						<rect x="851.801" y="1482.712" style="fill:#C4D9ED;" width="14.762" height="20.807"/>
					</g>
				</g>
				<g>
					<g>
						<rect x="612.91" y="1519.428" style="fill:#C4D9ED;" width="14.762" height="20.807"/>
						<rect x="640.515" y="1519.428" style="fill:#C4D9ED;" width="14.762" height="20.807"/>
						<rect x="667.501" y="1519.428" style="fill:#C4D9ED;" width="14.762" height="20.807"/>
						<rect x="693.089" y="1519.428" style="fill:#C4D9ED;" width="14.762" height="20.807"/>
						<rect x="719.167" y="1519.428" style="fill:#C4D9ED;" width="14.762" height="20.807"/>
					</g>
					<g>
						<rect x="745.544" y="1519.428" style="fill:#C4D9ED;" width="14.762" height="20.807"/>
						<rect x="773.149" y="1519.428" style="fill:#C4D9ED;" width="14.762" height="20.807"/>
						<rect x="800.136" y="1519.428" style="fill:#C4D9ED;" width="14.762" height="20.807"/>
						<rect x="825.723" y="1519.428" style="fill:#C4D9ED;" width="14.762" height="20.807"/>
						<rect x="851.801" y="1519.428" style="fill:#C4D9ED;" width="14.762" height="20.807"/>
					</g>
				</g>
				<g>
					<g>
						<rect x="612.91" y="1555.582" style="fill:#C4D9ED;" width="14.762" height="20.807"/>
						<rect x="640.515" y="1555.582" style="fill:#C4D9ED;" width="14.762" height="20.807"/>
						<rect x="667.501" y="1555.582" style="fill:#C4D9ED;" width="14.762" height="20.807"/>
						<rect x="693.089" y="1555.582" style="fill:#C4D9ED;" width="14.762" height="20.807"/>
						<rect x="719.167" y="1555.582" style="fill:#C4D9ED;" width="14.762" height="20.807"/>
					</g>
					<g>
						<rect x="745.544" y="1555.582" style="fill:#C4D9ED;" width="14.762" height="20.807"/>
						<rect x="773.149" y="1555.582" style="fill:#C4D9ED;" width="14.762" height="20.807"/>
						<rect x="800.136" y="1555.582" style="fill:#C4D9ED;" width="14.762" height="20.807"/>
						<rect x="825.723" y="1555.582" style="fill:#C4D9ED;" width="14.762" height="20.807"/>
						<rect x="851.801" y="1555.582" style="fill:#C4D9ED;" width="14.762" height="20.807"/>
					</g>
				</g>
			</g>
			<rect x="615.267" y="1418.916" style="fill:#ADC9E0;" width="12.405" height="21.462"/>
			<rect x="738.418" y="1418.916" style="fill:#ADC9E0;" width="12.405" height="21.462"/>
			<rect x="836.383" y="1418.916" style="fill:#ADC9E0;" width="12.404" height="21.462"/>
		</g>
		<g>
			<polygon style="fill:#D5E7F7;" points="575.278,1426.493 575.278,1619.784 322.675,1619.784 287.805,1582.039 287.805,1426.493 
							"/>
			<rect x="287.862" y="1401.266" style="fill:#C4D9ED;" width="287.427" height="62.826"/>
			<g>
				<g>
					<g>
						<rect x="307.432" y="1482.712" style="fill:#C4D9ED;" width="14.762" height="20.807"/>
						<rect x="335.037" y="1482.712" style="fill:#C4D9ED;" width="14.762" height="20.807"/>
						<rect x="362.023" y="1482.712" style="fill:#C4D9ED;" width="14.762" height="20.807"/>
						<rect x="387.611" y="1482.712" style="fill:#C4D9ED;" width="14.762" height="20.807"/>
						<rect x="413.689" y="1482.712" style="fill:#C4D9ED;" width="14.762" height="20.807"/>
					</g>
					<g>
						<rect x="440.066" y="1482.712" style="fill:#C4D9ED;" width="14.762" height="20.807"/>
						<rect x="467.671" y="1482.712" style="fill:#C4D9ED;" width="14.762" height="20.807"/>
						<rect x="494.658" y="1482.712" style="fill:#C4D9ED;" width="14.762" height="20.807"/>
						<rect x="520.245" y="1482.712" style="fill:#C4D9ED;" width="14.762" height="20.807"/>
						<rect x="546.323" y="1482.712" style="fill:#C4D9ED;" width="14.762" height="20.807"/>
					</g>
				</g>
				<g>
					<g>
						<rect x="307.432" y="1519.428" style="fill:#C4D9ED;" width="14.762" height="20.807"/>
						<rect x="335.037" y="1519.428" style="fill:#C4D9ED;" width="14.762" height="20.807"/>
						<rect x="362.023" y="1519.428" style="fill:#C4D9ED;" width="14.762" height="20.807"/>
						<rect x="387.611" y="1519.428" style="fill:#C4D9ED;" width="14.762" height="20.807"/>
						<rect x="413.689" y="1519.428" style="fill:#C4D9ED;" width="14.762" height="20.807"/>
					</g>
					<g>
						<rect x="440.066" y="1519.428" style="fill:#C4D9ED;" width="14.762" height="20.807"/>
						<rect x="467.671" y="1519.428" style="fill:#C4D9ED;" width="14.762" height="20.807"/>
						<rect x="494.658" y="1519.428" style="fill:#C4D9ED;" width="14.762" height="20.807"/>
						<rect x="520.245" y="1519.428" style="fill:#C4D9ED;" width="14.762" height="20.807"/>
						<rect x="546.323" y="1519.428" style="fill:#C4D9ED;" width="14.762" height="20.807"/>
					</g>
				</g>
				<g>
					<g>
						<rect x="307.432" y="1555.582" style="fill:#C4D9ED;" width="14.762" height="20.807"/>
						<rect x="335.037" y="1555.582" style="fill:#C4D9ED;" width="14.762" height="20.807"/>
						<rect x="362.023" y="1555.582" style="fill:#C4D9ED;" width="14.762" height="20.807"/>
						<rect x="387.611" y="1555.582" style="fill:#C4D9ED;" width="14.762" height="20.807"/>
						<rect x="413.689" y="1555.582" style="fill:#C4D9ED;" width="14.762" height="20.807"/>
					</g>
					<g>
						<rect x="440.066" y="1555.582" style="fill:#C4D9ED;" width="14.762" height="20.807"/>
						<rect x="467.671" y="1555.582" style="fill:#C4D9ED;" width="14.762" height="20.807"/>
						<rect x="494.658" y="1555.582" style="fill:#C4D9ED;" width="14.762" height="20.807"/>
						<rect x="520.245" y="1555.582" style="fill:#C4D9ED;" width="14.762" height="20.807"/>
						<rect x="546.323" y="1555.582" style="fill:#C4D9ED;" width="14.762" height="20.807"/>
					</g>
				</g>
			</g>
			<rect x="309.789" y="1418.916" style="fill:#ADC9E0;" width="12.405" height="21.462"/>
			<rect x="432.94" y="1418.916" style="fill:#ADC9E0;" width="12.405" height="21.462"/>
			<rect x="530.905" y="1418.916" style="fill:#ADC9E0;" width="12.404" height="21.462"/>
		</g>
		<g>
			<path style="fill:#D5E7F7;" d="M269.111,1426.493v120.913c-9.227-22.526-13.661-46.973-13.661-72.501c0-1.193,0-2.517,0.12-3.833
				c0-2.275,0.12-4.675,0.12-6.951c0.12-2.035,0.24-4.072,0.359-6.108c0.6-7.431,1.438-14.861,2.637-22.286
				c0-0.246,0.12-0.48,0.12-0.72c0.239-1.2,0.479-2.522,0.599-3.839c0.24-1.557,0.599-3.112,0.959-4.675H269.111z"/>
			<path style="fill:#C4D9ED;" d="M269.111,1401.211v62.91H255.69c0.12-2.035,0.24-4.072,0.359-6.108
				c0.6-7.431,1.438-14.861,2.637-22.286c0-0.246,0.12-0.48,0.12-0.72c0.239-1.2,0.479-2.522,0.599-3.839
				c0.24-1.557,0.599-3.112,0.959-4.675c1.078-5.512,2.396-11.023,3.834-16.652c0.239-1.322,0.599-2.639,0.958-3.955
				c0.48-1.557,0.839-3.113,1.438-4.675H269.111z"/>
		</g>
	</g>
	<path style="opacity:0.4;fill:#C4D9ED;" d="M2946.838,1378.766c-1.156,6.832-2.398,13.578-3.705,20.217
		c-0.299,1.51-0.588,3.02-0.899,4.519l-0.16,0.836c-0.835,4.048-1.681,8.063-2.56,12.036c-1.584,7.152-3.223,14.177-4.926,21.052
		c-0.311,1.264-0.632,2.526-0.941,3.779c-4.551,17.969-9.478,34.951-14.542,50.768c-0.847,2.634-1.692,5.247-2.549,7.816
		c-2.291,6.939-4.604,13.643-6.896,20.089c-1.649,4.594-3.288,9.059-4.926,13.385c-8.749,23.269-17.176,42.597-23.976,57.16
		c-6.351,13.6-11.821,24.971-14.573,30.689H1564.917v-271.289c99.189,7.624,230.941-75.985,326.971-24.64
		c108.772,58.166,392.313,203.764,573.182,98.504C2621.763,1332.485,2844.212,1336.479,2946.838,1378.766z"/>
	<path style="fill:#2E3552;" d="M2965.864,1625.384H163.402c-1.751,0-3.183-1.432-3.183-3.182v-1.086
		c0-1.75,1.432-3.183,3.183-3.183h2802.462c1.751,0,3.183,1.433,3.183,3.183v1.086
		C2969.047,1623.952,2967.615,1625.384,2965.864,1625.384z"/>
	<path style="fill:#A8D29F;" d="M2728.956,1617.934h-92.36c-4.949-4.198,3.424-13.732,12.174-14.373
		c3.801-0.287,8.606,0.508,14.098,1.668c1.271-16.881,8.529-92.77,35.884-89.72c30.757,3.413,0,33.42-8.695,51.185
		c-6.44,13.158-13.235,32.028-16.34,40.933c2.497,0.541,5.083,1.071,7.724,1.558c4.076-12.518,19.245-54.621,38.535-52.168
		c22.647,2.872,13.544,19.754-2.509,29.773c-11.776,7.369-26.239,17.843-33.11,22.902c5.822,0.951,11.898,1.592,18.063,1.447
		C2718.239,1610.764,2725.962,1615.426,2728.956,1617.934z"/>
	<path style="fill:#A8D29F;" d="M438.07,1614.045c-4.338-6.813-17.391-24.498-34.778-22.158
		c-18.943,2.551,20.922,15.04,33.127,22.21c-2.71,0.037-5.042-0.18-6.752-0.789c-8.16-2.909-22.134,2.669-26.602,4.626h77.681
		c-0.538-1.858-1.936-4.893-5.555-7.104c-1.275-0.779-3.839-0.889-7.149-0.637c4.619-5.445,7.826-22.839-5.032-18.363
		c-9.393,3.27-9.368,13.897-8.446,20.186c-1.998,0.314-4.024,0.63-6.027,0.918c-3.868-19.711-17.547-77.479-45.273-79.02
		c-28.108-1.562,23.836,59.911,41.13,79.57C442.179,1613.751,440.045,1613.952,438.07,1614.045z"/>
	<path style="fill:#F99746;" d="M790.275,1028.776c-36.189,0-69.502,12.702-95.625,33.913
		c-34.272,27.921-56.082,70.342-56.082,117.794c0,83.765,151.706,269.976,151.706,269.976s68.903-84.595,113.719-165.363
		c21.81-39.063,37.986-77.293,37.986-104.612C941.981,1096.725,874.037,1028.776,790.275,1028.776z M790.275,1249.743
		c-39.185,0-70.94-31.631-70.94-70.816c0-9.59,1.917-18.694,5.392-27.085c10.665-25.762,35.949-43.854,65.547-43.854
		c39.185,0,70.94,31.754,70.94,70.938c0,33.913-23.727,62.074-55.482,69.02C800.821,1249.146,795.548,1249.743,790.275,1249.743z"/>
	<path style="fill:#F99746;" d="M2713.269,1251.087c-37.185,0-67.328,30.144-67.328,67.328s67.328,119.854,67.328,119.854
		s67.329-82.67,67.329-119.854S2750.453,1251.087,2713.269,1251.087z M2713.269,1349.202c-17.381,0-31.471-14.091-31.471-31.471
		c0-17.381,14.09-31.472,31.471-31.472s31.471,14.091,31.471,31.472C2744.739,1335.111,2730.649,1349.202,2713.269,1349.202z"/>
	<path style="fill:#699FF0;" d="M482.433,1327.572c-20.363,0-36.871,16.508-36.871,36.871s36.871,65.635,36.871,65.635
		s36.871-45.271,36.871-65.635S502.796,1327.572,482.433,1327.572z M482.433,1381.303c-9.518,0-17.234-7.716-17.234-17.234
		c0-9.518,7.716-17.234,17.234-17.234c9.519,0,17.234,7.717,17.234,17.234C499.667,1373.587,491.951,1381.303,482.433,1381.303z"/>
	<g>
		<path style="fill:#A8D29F;" d="M857.428,1617.934c0,0,26.431-78.878,102.142-94.058c75.711-15.18,131.757,44.1,199.215,20.993
			c67.458-23.105,173.78-145.403,300.328-56.024c126.548,89.378,118.252,114.832,198.065,93.952
			c79.814-20.88,98.068,35.137,98.068,35.137H857.428z"/>
		<path style="fill:#A8D29F;" d="M935.156,1543.728c0,0-55.22-57.902-83.429-42.376
			C823.519,1516.879,935.156,1543.728,935.156,1543.728z"/>
		<path style="fill:#A8D29F;" d="M921.072,1558.371c0,0-50.902-16.595-63.645-8.298
			C844.685,1558.371,921.072,1558.371,921.072,1558.371z"/>
		<path style="fill:#A8D29F;" d="M1083.011,1553.061c0,0,34.98-78.479,47.116-64.201S1083.011,1553.061,1083.011,1553.061z"/>
		<path style="fill:#A8D29F;" d="M1074.445,1547.75c0,0,14.277-57.463-7.139-53.894
			C1045.89,1497.426,1074.445,1547.75,1074.445,1547.75z"/>
	</g>
	<g>
		<path style="fill:#FF9136;" d="M2694.877,1220.297c-0.074-0.225-1.745-5.644-5.354-15.494c-0.504-1.393-2.045-2.1-3.427-1.596
			c-1.393,0.514-2.109,2.045-1.596,3.438c3.545,9.701,5.236,15.173,5.258,15.227c0.354,1.156,1.413,1.896,2.56,1.896
			c0.257,0,0.524-0.043,0.781-0.118C2694.514,1223.209,2695.306,1221.71,2694.877,1220.297z M2683.752,1189.65
			c-1.917-4.872-3.973-9.916-6.094-14.991c-0.578-1.36-2.142-2.003-3.501-1.435c-1.371,0.578-2.013,2.141-1.436,3.501
			c2.11,5.044,4.145,10.055,6.05,14.884c0.418,1.05,1.425,1.703,2.496,1.703c0.32,0,0.652-0.064,0.974-0.192
			C2683.623,1192.573,2684.298,1191.021,2683.752,1189.65z M589.218,1178.813c-4.787-2.355-9.712-4.658-14.627-6.853
			c-1.35-0.6-2.934,0.01-3.534,1.359c-0.6,1.35,0.011,2.934,1.36,3.534c4.851,2.163,9.712,4.433,14.435,6.767
			c0.374,0.183,0.782,0.279,1.178,0.279c0.985,0,1.938-0.558,2.409-1.5C591.081,1181.073,590.546,1179.467,589.218,1178.813z
			 M559.729,1165.675c-4.958-1.991-10.034-3.93-15.088-5.75c-1.392-0.503-2.923,0.225-3.427,1.616
			c-0.492,1.393,0.225,2.924,1.617,3.427c4.99,1.8,10.001,3.705,14.906,5.676c0.321,0.128,0.664,0.192,0.996,0.192
			c1.06,0,2.067-0.643,2.484-1.681C561.763,1167.784,561.099,1166.221,559.729,1165.675z M2671.266,1159.817
			c-2.142-4.84-4.379-9.787-6.66-14.713c-0.621-1.338-2.206-1.917-3.555-1.296c-1.339,0.621-1.928,2.206-1.297,3.556
			c2.26,4.883,4.487,9.809,6.618,14.616c0.438,1.007,1.413,1.596,2.441,1.596c0.364,0,0.729-0.075,1.081-0.225
			C2671.255,1162.752,2671.865,1161.167,2671.266,1159.817z M529.371,1154.721c-5.054-1.639-10.248-3.213-15.431-4.69
			c-1.424-0.418-2.902,0.407-3.309,1.831c-0.407,1.424,0.407,2.902,1.831,3.309c5.129,1.467,10.269,3.03,15.269,4.647
			c0.268,0.086,0.546,0.129,0.825,0.129c1.125,0,2.174-0.729,2.548-1.863C531.555,1156.68,530.784,1155.17,529.371,1154.721z
			 M498.36,1145.844c-5.161-1.307-10.451-2.549-15.698-3.705c-1.445-0.321-2.87,0.6-3.191,2.034c-0.311,1.446,0.6,2.881,2.045,3.191
			c5.193,1.146,10.419,2.377,15.537,3.662c0.214,0.054,0.439,0.086,0.653,0.086c1.199,0,2.292-0.814,2.591-2.024
			C500.663,1147.653,499.795,1146.197,498.36,1145.844z M466.868,1138.904c-5.226-0.995-10.569-1.927-15.88-2.783
			c-1.457-0.247-2.827,0.76-3.063,2.216c-0.236,1.456,0.75,2.838,2.216,3.073c5.258,0.846,10.559,1.768,15.73,2.752
			c0.171,0.032,0.332,0.054,0.503,0.054c1.252,0,2.377-0.899,2.624-2.185C469.277,1140.575,468.324,1139.184,466.868,1138.904z
			 M435.043,1133.775c-5.247-0.707-10.623-1.359-15.998-1.938c-1.477-0.16-2.795,0.899-2.945,2.367
			c-0.16,1.478,0.9,2.795,2.367,2.955c5.322,0.578,10.665,1.221,15.87,1.917c0.118,0.021,0.235,0.021,0.353,0.021
			c1.328,0,2.474-0.975,2.656-2.313C437.539,1135.317,436.51,1133.968,435.043,1133.775z M2657.699,1130.521
			c-2.324-4.798-4.733-9.659-7.164-14.456c-0.664-1.317-2.271-1.853-3.598-1.188c-1.317,0.675-1.842,2.28-1.179,3.598
			c2.409,4.775,4.809,9.616,7.121,14.381c0.46,0.953,1.413,1.51,2.409,1.51c0.386,0,0.793-0.085,1.168-0.268
			C2657.784,1133.454,2658.341,1131.848,2657.699,1130.521z M2643.146,1101.727c-2.484-4.723-5.055-9.498-7.624-14.21
			c-0.707-1.296-2.335-1.767-3.63-1.06c-1.296,0.706-1.778,2.334-1.071,3.63c2.56,4.679,5.118,9.434,7.581,14.134
			c0.482,0.91,1.414,1.425,2.377,1.425c0.418,0,0.847-0.097,1.243-0.3C2643.328,1104.649,2643.832,1103.032,2643.146,1101.727z
			 M2627.673,1073.436c-2.645-4.647-5.354-9.349-8.073-13.964c-0.75-1.274-2.399-1.691-3.662-0.942
			c-1.274,0.75-1.703,2.389-0.953,3.663c2.709,4.593,5.407,9.262,8.031,13.888c0.492,0.867,1.402,1.35,2.334,1.35
			c0.449,0,0.899-0.107,1.317-0.343C2627.951,1076.348,2628.401,1074.721,2627.673,1073.436z M977.686,1046.301
			c-1.199-0.856-2.87-0.567-3.726,0.643c-3.084,4.358-6.19,8.813-9.209,13.214c-0.836,1.221-0.525,2.881,0.696,3.727
			c0.46,0.311,0.985,0.461,1.51,0.461c0.857,0,1.692-0.407,2.206-1.157c3.009-4.39,6.093-8.813,9.166-13.149
			C979.185,1048.828,978.896,1047.158,977.686,1046.301z M2611.301,1045.658c-2.806-4.594-5.664-9.197-8.514-13.685
			c-0.792-1.253-2.441-1.628-3.694-0.835c-1.253,0.792-1.616,2.441-0.824,3.694c2.827,4.465,5.675,9.048,8.47,13.609
			c0.504,0.836,1.382,1.285,2.281,1.285c0.482,0,0.953-0.128,1.393-0.396C2611.675,1048.561,2612.071,1046.911,2611.301,1045.658z
			 M996.682,1020.377c-1.188-0.878-2.859-0.643-3.747,0.535c-3.223,4.294-6.446,8.652-9.584,12.946
			c-0.867,1.199-0.61,2.87,0.589,3.748c0.471,0.343,1.028,0.503,1.574,0.503c0.825,0,1.639-0.375,2.163-1.092
			c3.116-4.283,6.329-8.62,9.53-12.882C998.096,1022.947,997.86,1021.276,996.682,1020.377z M2594.061,1018.417
			c-2.944-4.486-5.965-8.994-8.952-13.406c-0.835-1.221-2.495-1.531-3.716-0.707c-1.23,0.836-1.541,2.495-0.717,3.716
			c2.977,4.391,5.975,8.877,8.898,13.343c0.514,0.781,1.37,1.21,2.248,1.21c0.504,0,1.007-0.15,1.467-0.44
			C2594.521,1021.319,2594.863,1019.659,2594.061,1018.417z M1016.417,995.031c-1.157-0.921-2.838-0.739-3.759,0.417
			c-3.33,4.166-6.682,8.428-9.958,12.657c-0.91,1.167-0.696,2.859,0.471,3.759c0.493,0.374,1.071,0.557,1.638,0.557
			c0.803,0,1.596-0.354,2.121-1.028c3.266-4.219,6.596-8.459,9.905-12.603C1017.756,997.633,1017.574,995.952,1016.417,995.031z
			 M2575.942,991.754c-3.073-4.369-6.231-8.78-9.37-13.096c-0.877-1.199-2.548-1.467-3.747-0.589
			c-1.188,0.867-1.456,2.538-0.589,3.737c3.127,4.294,6.264,8.673,9.326,13.031c0.525,0.739,1.35,1.135,2.195,1.135
			c0.535,0,1.071-0.15,1.531-0.482C2576.499,994.635,2576.799,992.964,2575.942,991.754z M1036.902,970.274
			c-1.135-0.953-2.816-0.814-3.78,0.311c-3.438,4.058-6.917,8.213-10.323,12.357c-0.942,1.135-0.782,2.827,0.364,3.759
			c0.493,0.417,1.103,0.621,1.703,0.621c0.771,0,1.531-0.343,2.066-0.985c3.384-4.112,6.842-8.256,10.269-12.293
			C1038.166,972.919,1038.026,971.227,1036.902,970.274z M2556.979,965.701c-3.224-4.272-6.521-8.577-9.809-12.785
			c-0.899-1.167-2.592-1.381-3.748-0.471c-1.167,0.91-1.381,2.591-0.471,3.758c3.266,4.187,6.542,8.47,9.755,12.722
			c0.524,0.696,1.327,1.07,2.131,1.07c0.567,0,1.135-0.182,1.616-0.546C2557.632,968.56,2557.867,966.879,2556.979,965.701z
			 M1058.125,946.148c-1.103-0.985-2.795-0.899-3.78,0.193c-3.587,3.973-7.185,8.02-10.708,12.036
			c-0.975,1.114-0.856,2.806,0.257,3.78c0.503,0.45,1.135,0.664,1.756,0.664c0.75,0,1.488-0.31,2.013-0.91
			c3.512-4.004,7.088-8.031,10.654-11.982C1059.303,948.836,1059.218,947.144,1058.125,946.148z M2537.157,940.291
			c-3.361-4.176-6.799-8.363-10.226-12.454c-0.942-1.135-2.635-1.285-3.77-0.342c-1.135,0.953-1.285,2.634-0.332,3.769
			c3.395,4.08,6.821,8.245,10.162,12.389c0.535,0.653,1.307,0.996,2.088,0.996c0.59,0,1.178-0.193,1.682-0.6
			C2537.907,943.129,2538.09,941.437,2537.157,940.291z M1080.077,922.708c-1.06-1.028-2.752-0.996-3.78,0.075
			c-3.727,3.866-7.453,7.807-11.072,11.693c-1.006,1.081-0.942,2.773,0.14,3.78c0.514,0.482,1.167,0.728,1.82,0.728
			c0.717,0,1.434-0.289,1.959-0.857c3.608-3.865,7.313-7.785,11.008-11.64C1081.18,925.428,1081.147,923.726,1080.077,922.708z
			 M2516.502,915.556c-3.513-4.059-7.089-8.128-10.644-12.1c-0.985-1.092-2.677-1.189-3.78-0.204
			c-1.104,0.985-1.199,2.677-0.214,3.78c3.544,3.951,7.099,7.988,10.59,12.025c0.524,0.61,1.274,0.932,2.024,0.932
			c0.621,0,1.241-0.214,1.745-0.653C2517.348,918.361,2517.466,916.68,2516.502,915.556z M1102.767,899.964
			c-1.028-1.06-2.72-1.082-3.78-0.043c-3.801,3.705-7.656,7.527-11.436,11.34c-1.039,1.049-1.039,2.741,0.01,3.78
			c0.525,0.525,1.21,0.782,1.885,0.782c0.696,0,1.381-0.267,1.906-0.792c3.758-3.791,7.592-7.592,11.372-11.286
			C1103.785,902.716,1103.806,901.024,1102.767,899.964z M2495.011,891.548c-3.662-3.94-7.378-7.881-11.062-11.715
			c-1.027-1.07-2.72-1.102-3.791-0.075c-1.06,1.017-1.092,2.72-0.074,3.78c3.662,3.813,7.355,7.731,10.997,11.65
			c0.524,0.568,1.242,0.857,1.959,0.857c0.653,0,1.307-0.236,1.821-0.717C2495.953,894.332,2496.018,892.629,2495.011,891.548z
			 M1126.186,877.97c-1.007-1.092-2.699-1.167-3.791-0.171c-3.93,3.598-7.902,7.281-11.79,10.965
			c-1.082,1.018-1.124,2.709-0.107,3.78c0.525,0.557,1.231,0.846,1.938,0.846c0.664,0,1.328-0.246,1.842-0.739
			c3.876-3.651,7.817-7.324,11.736-10.901C1127.107,880.754,1127.182,879.052,1126.186,877.97z M2472.685,868.312
			c-3.78-3.802-7.635-7.603-11.469-11.318c-1.06-1.028-2.752-1.007-3.78,0.053c-1.027,1.071-1.006,2.763,0.054,3.791
			c3.813,3.694,7.646,7.475,11.404,11.254c0.524,0.525,1.21,0.782,1.896,0.782s1.36-0.257,1.885-0.782
			C2473.723,871.053,2473.723,869.361,2472.685,868.312z M1150.3,856.747c-0.963-1.125-2.655-1.253-3.78-0.289
			c-4.048,3.458-8.127,7.014-12.154,10.569c-1.103,0.975-1.21,2.666-0.225,3.78c0.524,0.6,1.263,0.9,2.002,0.9
			c0.632,0,1.263-0.225,1.777-0.675c3.994-3.534,8.053-7.067,12.079-10.516C1151.125,859.563,1151.253,857.871,1150.3,856.747z
			 M1175.101,836.337c-0.921-1.156-2.613-1.338-3.759-0.418c-4.176,3.33-8.374,6.757-12.496,10.162
			c-1.146,0.942-1.296,2.634-0.354,3.769c0.524,0.643,1.285,0.975,2.056,0.975c0.6,0,1.21-0.204,1.713-0.621
			c4.091-3.384,8.277-6.789,12.421-10.098C1175.839,839.175,1176.021,837.494,1175.101,836.337z M2449.544,845.889
			c-3.908-3.662-7.902-7.324-11.864-10.901c-1.104-0.985-2.795-0.899-3.78,0.193c-0.995,1.103-0.899,2.795,0.192,3.79
			c3.941,3.544,7.914,7.185,11.801,10.826c0.514,0.482,1.168,0.718,1.831,0.718c0.707,0,1.425-0.278,1.949-0.846
			C2450.68,848.587,2450.626,846.896,2449.544,845.889z M1200.575,816.773c-0.889-1.178-2.56-1.424-3.748-0.535
			c-4.262,3.169-8.577,6.446-12.828,9.733c-1.167,0.899-1.382,2.581-0.482,3.748c0.525,0.685,1.317,1.049,2.121,1.049
			c0.567,0,1.146-0.182,1.638-0.568c4.219-3.255,8.513-6.51,12.753-9.68C1201.217,819.643,1201.464,817.962,1200.575,816.773z
			 M2425.611,824.312c-4.037-3.502-8.159-7.014-12.26-10.451c-1.136-0.942-2.828-0.792-3.78,0.343
			c-0.942,1.135-0.793,2.816,0.343,3.769c4.079,3.416,8.181,6.907,12.186,10.387c0.503,0.439,1.135,0.653,1.756,0.653
			c0.75,0,1.488-0.311,2.023-0.921C2426.843,826.978,2426.726,825.286,2425.611,824.312z M1226.703,798.088
			c-0.846-1.21-2.516-1.51-3.726-0.664c-4.391,3.041-8.813,6.168-13.161,9.295c-1.199,0.856-1.467,2.537-0.61,3.737
			c0.525,0.728,1.349,1.114,2.185,1.114c0.535,0,1.082-0.171,1.553-0.503c4.326-3.116,8.727-6.221,13.085-9.251
			C1227.238,800.979,1227.538,799.309,1226.703,798.088z M2400.887,803.646c-4.187-3.373-8.438-6.725-12.646-9.98
			c-1.167-0.91-2.849-0.686-3.758,0.482c-0.9,1.167-0.686,2.848,0.481,3.747c4.176,3.234,8.405,6.575,12.571,9.926
			c0.492,0.396,1.082,0.589,1.67,0.589c0.782,0,1.564-0.342,2.088-0.996C2402.225,806.258,2402.043,804.577,2400.887,803.646z
			 M1253.441,780.313c-0.803-1.242-2.453-1.606-3.705-0.803c-4.487,2.902-9.016,5.868-13.46,8.845
			c-1.221,0.825-1.552,2.484-0.728,3.716c0.514,0.771,1.36,1.188,2.228,1.188c0.503,0,1.028-0.15,1.478-0.46
			c4.422-2.955,8.92-5.911,13.385-8.78C1253.88,783.214,1254.244,781.555,1253.441,780.313z M2375.412,783.921
			c-4.305-3.202-8.684-6.393-13.021-9.487c-1.199-0.857-2.869-0.578-3.736,0.621c-0.857,1.199-0.579,2.88,0.621,3.737
			c4.305,3.073,8.662,6.243,12.936,9.434c0.481,0.354,1.038,0.525,1.596,0.525c0.824,0,1.627-0.375,2.151-1.082
			C2376.836,786.491,2376.59,784.81,2375.412,783.921z M1280.778,763.458c-0.76-1.274-2.398-1.681-3.673-0.932
			c-4.572,2.741-9.209,5.558-13.749,8.373c-1.264,0.782-1.649,2.431-0.867,3.694c0.503,0.814,1.381,1.264,2.281,1.264
			c0.482,0,0.963-0.128,1.403-0.407c4.529-2.805,9.123-5.6,13.685-8.32C1281.121,766.371,1281.539,764.732,1280.778,763.458z
			 M2349.199,765.192c-4.423-3.03-8.92-6.05-13.375-8.984c-1.242-0.814-2.902-0.471-3.716,0.771
			c-0.813,1.231-0.471,2.891,0.771,3.705c4.422,2.913,8.897,5.911,13.288,8.92c0.461,0.321,0.985,0.471,1.51,0.471
			c0.857,0,1.692-0.407,2.206-1.157C2350.719,767.698,2350.408,766.028,2349.199,765.192z M1308.684,747.557
			c-0.717-1.296-2.345-1.767-3.641-1.05c-4.69,2.581-9.412,5.236-14.038,7.892c-1.285,0.739-1.724,2.366-0.985,3.651
			c0.493,0.867,1.392,1.349,2.324,1.349c0.45,0,0.91-0.118,1.328-0.354c4.604-2.644,9.295-5.29,13.953-7.849
			C1308.919,750.479,1309.391,748.852,1308.684,747.557z M2322.279,747.492c-4.498-2.838-9.113-5.686-13.718-8.459
			c-1.264-0.76-2.902-0.354-3.673,0.91c-0.76,1.264-0.354,2.913,0.91,3.673c4.572,2.763,9.155,5.59,13.621,8.406
			c0.449,0.279,0.942,0.407,1.424,0.407c0.889,0,1.756-0.439,2.271-1.242C2323.906,749.934,2323.531,748.274,2322.279,747.492z
			 M1337.114,732.619c-0.675-1.317-2.281-1.842-3.609-1.178c-4.754,2.42-9.563,4.915-14.295,7.41
			c-1.307,0.696-1.799,2.313-1.114,3.619c0.482,0.911,1.414,1.424,2.366,1.424c0.429,0,0.857-0.096,1.253-0.31
			c4.701-2.484,9.487-4.958,14.22-7.367C1337.253,735.553,1337.777,733.935,1337.114,732.619z M2294.684,730.852
			c-4.637-2.688-9.358-5.343-14.027-7.913c-1.295-0.717-2.923-0.246-3.641,1.049c-0.707,1.296-0.235,2.923,1.06,3.641
			c4.638,2.548,9.327,5.193,13.942,7.859c0.418,0.236,0.878,0.354,1.328,0.354c0.932,0,1.83-0.482,2.323-1.339
			C2296.408,733.218,2295.969,731.591,2294.684,730.852z M1366.036,718.666c-0.632-1.338-2.217-1.917-3.566-1.296
			c-4.829,2.249-9.723,4.573-14.542,6.917c-1.328,0.643-1.885,2.248-1.231,3.577c0.46,0.953,1.414,1.51,2.409,1.51
			c0.386,0,0.792-0.096,1.167-0.278c4.787-2.324,9.659-4.637,14.456-6.864C1366.068,721.6,1366.657,720.015,1366.036,718.666z
			 M2266.469,715.304c-4.744-2.495-9.563-4.969-14.328-7.356c-1.317-0.664-2.934-0.129-3.587,1.188
			c-0.664,1.328-0.129,2.934,1.188,3.598c4.732,2.366,9.53,4.829,14.242,7.303c0.396,0.214,0.824,0.311,1.242,0.311
			c0.963,0,1.895-0.525,2.365-1.435C2268.289,717.606,2267.785,715.989,2266.469,715.304z M1395.408,705.709
			c-0.578-1.36-2.142-1.992-3.512-1.413c-4.905,2.077-9.873,4.24-14.767,6.414c-1.35,0.6-1.96,2.174-1.36,3.534
			c0.45,0.996,1.424,1.584,2.452,1.584c0.364,0,0.728-0.075,1.082-0.225c4.861-2.163,9.809-4.315,14.691-6.382
			C1395.355,708.643,1395.987,707.069,1395.408,705.709z M2237.663,700.869c-4.818-2.292-9.733-4.583-14.605-6.778
			c-1.35-0.61-2.935-0.022-3.544,1.328c-0.611,1.349-0.012,2.934,1.338,3.544c4.84,2.195,9.723,4.455,14.51,6.746
			c0.375,0.171,0.771,0.257,1.156,0.257c0.996,0,1.959-0.568,2.409-1.521C2239.569,703.107,2239.002,701.512,2237.663,700.869z
			 M1425.209,693.748c-0.535-1.381-2.077-2.066-3.458-1.542c-4.99,1.928-10.023,3.919-14.981,5.922
			c-1.371,0.557-2.023,2.109-1.467,3.48c0.417,1.049,1.414,1.681,2.474,1.681c0.343,0,0.675-0.065,1.006-0.203
			c4.926-1.992,9.937-3.973,14.895-5.879C1425.059,696.671,1425.745,695.129,1425.209,693.748z M2208.323,687.591
			c-4.915-2.109-9.916-4.197-14.862-6.21c-1.371-0.557-2.935,0.096-3.491,1.467c-0.557,1.371,0.106,2.934,1.478,3.491
			c4.915,2.002,9.884,4.08,14.767,6.168c0.343,0.15,0.696,0.214,1.05,0.214c1.038,0,2.023-0.6,2.462-1.617
			C2210.305,689.744,2209.684,688.169,2208.323,687.591z M1455.395,682.783c-0.493-1.403-2.024-2.142-3.416-1.649
			c-5.044,1.756-10.141,3.576-15.163,5.408c-1.381,0.514-2.099,2.045-1.584,3.437c0.396,1.081,1.414,1.756,2.505,1.756
			c0.311,0,0.621-0.054,0.921-0.161c4.99-1.831,10.066-3.641,15.088-5.386C1455.138,685.696,1455.877,684.175,1455.395,682.783z
			 M1485.913,672.803c-0.439-1.403-1.938-2.195-3.352-1.756c-5.129,1.596-10.291,3.255-15.334,4.915
			c-1.403,0.471-2.163,1.981-1.703,3.384c0.375,1.125,1.414,1.842,2.538,1.842c0.278,0,0.567-0.043,0.846-0.139
			c5.011-1.649,10.151-3.298,15.249-4.883C1485.56,675.716,1486.352,674.217,1485.913,672.803z M2178.479,675.459
			c-4.968-1.906-10.044-3.802-15.087-5.633c-1.393-0.503-2.924,0.214-3.427,1.606s0.214,2.923,1.595,3.427
			c5.012,1.82,10.066,3.705,15.003,5.6c0.31,0.118,0.642,0.171,0.952,0.171c1.082,0,2.1-0.653,2.506-1.713
			C2180.547,677.536,2179.861,675.983,2178.479,675.459z M1516.742,663.819c-0.396-1.424-1.874-2.26-3.298-1.863
			c-5.161,1.435-10.365,2.923-15.473,4.422c-1.424,0.417-2.238,1.906-1.821,3.33c0.343,1.167,1.414,1.917,2.57,1.917
			c0.247,0,0.503-0.032,0.761-0.107c5.075-1.5,10.258-2.977,15.398-4.401C1516.303,666.721,1517.138,665.254,1516.742,663.819z
			 M2148.197,664.494c-5.054-1.724-10.205-3.416-15.302-5.044c-1.402-0.45-2.913,0.321-3.362,1.735
			c-0.449,1.413,0.332,2.913,1.734,3.362c5.065,1.617,10.184,3.309,15.206,5.011c0.278,0.097,0.567,0.15,0.856,0.15
			c1.113,0,2.152-0.706,2.537-1.82C2150.339,666.496,2149.59,664.976,2148.197,664.494z M1547.838,655.82
			c-0.354-1.435-1.799-2.324-3.234-1.971c-5.204,1.264-10.451,2.592-15.612,3.93c-1.435,0.375-2.292,1.842-1.917,3.266
			c0.311,1.21,1.402,2.002,2.591,2.002c0.225,0,0.45-0.021,0.674-0.086c5.129-1.338,10.355-2.645,15.527-3.908
			C1547.303,658.701,1548.181,657.255,1547.838,655.82z M2117.508,654.696c-5.107-1.531-10.312-3.03-15.473-4.465
			c-1.414-0.396-2.892,0.439-3.287,1.863c-0.396,1.424,0.428,2.902,1.852,3.298c5.13,1.424,10.302,2.913,15.377,4.433
			c0.257,0.075,0.514,0.118,0.771,0.118c1.156,0,2.217-0.749,2.559-1.917C2119.735,656.613,2118.932,655.124,2117.508,654.696z
			 M1579.159,648.764c-0.3-1.446-1.724-2.367-3.17-2.066c-2.452,0.524-4.904,1.059-7.367,1.595c-2.794,0.61-5.579,1.231-8.352,1.863
			c-1.446,0.332-2.345,1.767-2.024,3.212c0.289,1.242,1.392,2.077,2.613,2.077c0.193,0,0.396-0.021,0.6-0.064
			c2.763-0.632,5.525-1.253,8.31-1.852c2.452-0.536,4.894-1.071,7.335-1.596C1578.549,651.633,1579.47,650.209,1579.159,648.764z
			 M2086.486,646.065c-5.15-1.339-10.408-2.645-15.623-3.887c-1.445-0.343-2.891,0.546-3.233,1.981
			c-0.343,1.435,0.546,2.88,1.98,3.223c5.184,1.242,10.409,2.538,15.538,3.866c0.225,0.053,0.449,0.086,0.674,0.086
			c1.189,0,2.271-0.803,2.581-2.013C2088.778,647.896,2087.922,646.429,2086.486,646.065z M1610.662,642.424
			c-0.278-1.446-1.681-2.398-3.137-2.12c-5.215,0.996-10.526,2.045-15.784,3.116c-1.456,0.289-2.388,1.703-2.099,3.159
			c0.257,1.264,1.381,2.142,2.623,2.142c0.182,0,0.354-0.021,0.536-0.053c5.247-1.061,10.537-2.11,15.73-3.105
			C1609.988,645.284,1610.94,643.881,1610.662,642.424z M2055.166,638.58c-5.215-1.146-10.516-2.259-15.763-3.309
			c-1.446-0.3-2.859,0.643-3.148,2.088c-0.289,1.457,0.643,2.859,2.099,3.159c5.205,1.039,10.483,2.152,15.666,3.287
			c0.193,0.043,0.386,0.064,0.568,0.064c1.23,0,2.345-0.857,2.612-2.099C2057.521,640.326,2056.611,638.901,2055.166,638.58z
			 M1642.283,636.792c-0.246-1.456-1.628-2.441-3.084-2.195c-5.258,0.889-10.59,1.82-15.858,2.763
			c-1.456,0.268-2.42,1.66-2.152,3.116c0.225,1.285,1.359,2.195,2.623,2.195c0.161,0,0.321-0.011,0.482-0.043
			c5.247-0.942,10.558-1.874,15.794-2.752C1641.544,639.629,1642.529,638.248,1642.283,636.792z M2023.598,632.231
			c-5.258-0.953-10.59-1.885-15.869-2.752c-1.445-0.236-2.838,0.75-3.073,2.216c-0.246,1.457,0.75,2.827,2.206,3.073
			c5.247,0.857,10.547,1.778,15.773,2.73c0.16,0.032,0.32,0.043,0.481,0.043c1.264,0,2.398-0.899,2.624-2.195
			C2026.008,633.89,2025.044,632.498,2023.598,632.231z M1674.022,631.866c-0.215-1.456-1.563-2.474-3.03-2.259
			c-5.279,0.76-10.634,1.574-15.913,2.398c-1.456,0.236-2.463,1.606-2.227,3.063c0.203,1.317,1.338,2.259,2.634,2.259
			c0.14,0,0.278-0.01,0.429-0.032c5.257-0.824,10.59-1.627,15.848-2.388C1673.219,634.693,1674.236,633.333,1674.022,631.866z
			 M1705.879,627.711c-0.183-1.467-1.51-2.516-2.978-2.345c-5.269,0.643-10.644,1.317-15.966,2.024
			c-1.467,0.193-2.494,1.542-2.302,3.009c0.171,1.349,1.328,2.323,2.645,2.323c0.118,0,0.235-0.011,0.354-0.021
			c5.312-0.707,10.665-1.381,15.912-2.013C1705.012,630.506,1706.05,629.179,1705.879,627.711z M1991.827,627.005
			c-5.269-0.771-10.633-1.51-15.955-2.195c-1.478-0.193-2.806,0.846-2.998,2.313c-0.183,1.456,0.846,2.806,2.313,2.998
			c5.29,0.674,10.623,1.413,15.859,2.184c0.128,0.022,0.257,0.032,0.385,0.032c1.307,0,2.452-0.964,2.656-2.292
			C1994.301,628.579,1993.283,627.219,1991.827,627.005z M1734.908,621.929c-5.312,0.503-10.697,1.049-16.02,1.617
			c-1.467,0.161-2.527,1.478-2.377,2.945c0.15,1.381,1.317,2.399,2.666,2.399c0.097,0,0.193-0.011,0.289-0.021
			c5.301-0.568,10.666-1.114,15.944-1.617c1.468-0.139,2.549-1.445,2.409-2.913C1737.682,622.861,1736.375,621.79,1734.908,621.929z
			 M1959.896,622.872c-5.321-0.6-10.708-1.157-16.02-1.66c-1.467-0.14-2.772,0.932-2.912,2.409c-0.14,1.467,0.932,2.773,2.409,2.913
			c5.279,0.514,10.633,1.071,15.923,1.66c0.097,0.011,0.204,0.021,0.3,0.021c1.35,0,2.506-1.017,2.656-2.377
			C1962.423,624.36,1961.363,623.043,1959.896,622.872z M1766.989,619.306c-5.311,0.364-10.708,0.76-16.051,1.199
			c-1.478,0.128-2.57,1.414-2.452,2.891c0.117,1.403,1.285,2.453,2.666,2.453h0.225c5.322-0.439,10.697-0.846,15.977-1.21
			c1.478-0.096,2.592-1.371,2.484-2.848C1769.741,620.312,1768.5,619.199,1766.989,619.306z M1927.847,619.809
			c-5.301-0.429-10.697-0.814-16.063-1.146c-1.499-0.096-2.752,1.028-2.837,2.495c-0.097,1.477,1.027,2.752,2.494,2.848
			c5.333,0.332,10.708,0.718,15.977,1.135c0.075,0.011,0.15,0.011,0.215,0.011c1.381,0,2.559-1.06,2.666-2.463
			C1930.416,621.212,1929.313,619.927,1927.847,619.809z M1799.135,617.539c-5.3,0.214-10.719,0.481-16.072,0.77
			c-1.478,0.086-2.613,1.339-2.527,2.816c0.075,1.435,1.253,2.538,2.666,2.538c0.054,0,0.097,0,0.15-0.011
			c5.344-0.289,10.729-0.546,16.009-0.76c1.478-0.065,2.623-1.317,2.559-2.795C1801.855,618.62,1800.581,617.485,1799.135,617.539z
			 M1895.712,617.774c-5.322-0.257-10.729-0.471-16.095-0.643c-1.456-0.032-2.709,1.114-2.763,2.591
			c-0.043,1.478,1.113,2.71,2.592,2.763c5.332,0.171,10.719,0.386,16.008,0.632h0.129c1.424,0,2.603-1.114,2.677-2.548
			C1898.324,619.091,1897.189,617.839,1895.712,617.774z M1831.355,616.671h-0.031c-5.312,0.064-10.729,0.171-16.095,0.321
			c-1.478,0.043-2.645,1.264-2.602,2.752c0.031,1.446,1.231,2.602,2.666,2.602h0.075c5.343-0.15,10.74-0.257,16.019-0.321
			c1.478-0.021,2.667-1.232,2.646-2.709C1834.012,617.85,1832.822,616.671,1831.355,616.671z M1863.523,616.736
			c-5.333-0.086-10.752-0.139-16.095-0.15c-0.011,0-0.011,0-0.011,0c-1.478,0-2.677,1.199-2.677,2.666
			c0,1.489,1.199,2.688,2.677,2.688c5.322,0.011,10.708,0.064,16.02,0.15h0.043c1.456,0,2.655-1.167,2.677-2.634
			C1866.179,617.978,1865.001,616.757,1863.523,616.736z"/>
	</g>
	<g>
		<g>
			<polygon style="fill:#699FF0;" points="2050.388,1320.516 2044.306,1315.563 2125.78,1209.085 2155.185,1207.857 			"/>
		</g>
		<g>
			<polygon style="fill:#699FF0;" points="1943.935,1320.516 1938.902,1315.563 2006.309,1209.085 2030.637,1207.857 			"/>
		</g>
		<g>
			<ellipse style="fill:#699FF0;" cx="1482.167" cy="1043.011" rx="35.729" ry="36.589"/>
			<path style="fill:#699FF0;" d="M1899.681,1536.256h-363.293c-3.947,0-7.177-3.254-7.177-7.23v-34.333
				c0-3.978,3.229-7.231,7.177-7.231h320.919c3.947,0,7.177,3.254,7.177,7.231L1899.681,1536.256z"/>
			<circle style="fill:#2B478B;" cx="2011.45" cy="1509.362" r="108.571"/>
			<circle style="fill:#85B2EF;" cx="2011.45" cy="1509.366" r="55.345"/>
			<g>
				<path style="fill:#699FF0;" d="M1453.39,1356.112c-15.333-4.884-31.648-7.506-48.562-7.506c-11.946,0-23.605,1.317-34.809,3.807
					c-64.303,14.244-114.229,67.128-124.14,132.927c-1.903,12.651,7.948,24.023,20.744,24.023h0.706
					c6.895,0,12.592-5.268,13.251-12.138c6.128-63.165,59.515-112.709,124.248-112.709c19.332,0,37.658,4.417,54.008,12.293
					c41.871,20.182,70.838,63.046,70.838,112.554h35.91C1565.584,1437.639,1518.375,1376.736,1453.39,1356.112z"/>
			</g>
			<g>
				<path style="fill:#699FF0;" d="M1619.987,1487.458l-54.403,21.905c-37.669-73.256-76.141-109.202-109.046-126.93
					c-59.191-31.912-100.392-4.884-86.519-30.021l101.541-214.25c9.516-13.227,21.917-23.27,35.778-29.829
					c15.075-7.128,31.876-10.128,48.567-8.59c19.375,1.785,32.038,21.336,25.868,39.79c-13.292,39.754-18.404,79.713-18.404,117.658
					C1563.369,1383.476,1619.987,1487.458,1619.987,1487.458z"/>
			</g>
			<path style="fill:#699FF0;" d="M1564.522,1124.525l-40.976-15.655c-5.576,0-16.209,5.04-16.209-0.536l6.07-100.072
				c0-5.576,4.563-10.138,10.139-10.138h26.412c5.577,0,27.93,10.693,26.353,30.714l7.028,100.875
				C1583.339,1135.29,1570.099,1124.525,1564.522,1124.525z"/>
			<path style="fill:#699FF0;" d="M2262.461,1212.814h-272.9c-7.899,0-14.363-6.463-14.363-14.363v-9.854
				c0-7.9,6.464-14.364,14.363-14.364h272.9c7.9,0,14.363,6.464,14.363,14.364v9.854
				C2276.824,1206.352,2270.361,1212.814,2262.461,1212.814z"/>
			<circle style="fill:#2B478B;" cx="1404.837" cy="1509.362" r="108.571"/>
			<path style="fill:#AFCDFB;" d="M1460.177,1509.363c0,9.324-2.311,18.11-6.38,25.807c-0.263,0.503-0.539,0.994-0.826,1.484
				c-9.492,16.758-27.495,28.058-48.131,28.058c-30.571,0-55.349-24.777-55.349-55.349c0-23.03,14.065-42.769,34.079-51.088
				c0.204-0.096,0.419-0.18,0.634-0.264c6.38-2.573,13.347-3.985,20.636-3.985
				C1435.399,1454.026,1460.177,1478.804,1460.177,1509.363z"/>
			<path style="fill:#699FF0;" d="M1802.494,1290.679c0,0,42.324,94.287-52.238,196.782h218.252l-29.605-224.376L1802.494,1290.679z
				"/>
			<path style="fill:#699FF0;" d="M2230.311,1521.896c0,3.95-1.615,7.541-4.226,10.15c-2.597,2.598-6.188,4.214-10.138,4.214
				h-348.29c-7.9,0-14.364-6.464-14.364-14.364l4.621-227.8l117.281-7.182C2131.427,1286.914,2230.311,1365.664,2230.311,1521.896z"
				/>
			<path style="fill:#F99746;" d="M1517.896,1040.932c0,3.531-0.323,6.979-0.945,10.33c-4.848,26.094-27.747,45.845-55.242,45.845
				v-112.35C1492.735,984.756,1517.896,1009.905,1517.896,1040.932z"/>
			<g>
				<path style="fill:#2B478B;" d="M1606.572,1048.517c-0.217,0-2.548-0.456-2.769-0.499l-61.807-17.148
					c-2.454-0.479-4.151-3.519-3.792-6.789s2.634-5.535,5.093-5.055l61.954,12.098c2.454,0.479,4.406,4.204,4.986,7.418
					C1611.211,1043.928,1608.765,1048.517,1606.572,1048.517z"/>
			</g>
			<path style="fill:#F99746;" d="M1457.22,1386.767c0.563,3.46,1.102,6.812,1.616,10.043c-0.156-0.071-0.312-0.155-0.479-0.228
				c-16.231-7.732-34.39-12.065-53.529-12.065c-64.733,0-118.12,49.544-124.248,112.709c-0.659,6.87-6.356,12.138-13.251,12.138
				h-0.706c-12.796,0-22.647-11.372-20.744-24.023c9.875-65.584,59.502-118.323,123.494-132.771c0.215-0.06,0.431-0.107,0.646-0.155
				l101.541-214.25c9.516-13.227,21.917-23.27,35.778-29.829c-17.309,29.123-65.057,122.261-53.948,247.778
				c0.766,8.618,1.808,17.392,3.148,26.321C1456.765,1383.87,1456.98,1385.318,1457.22,1386.767z"/>
			<path style="fill:#F99746;" d="M2035.739,1246.168v33.839c0,5.865-4.8,10.677-10.677,10.677h-222.569
				c-5.865,0-10.678-4.812-10.678-10.677v-33.839c0-5.877,4.813-10.678,10.678-10.678h222.569
				C2030.939,1235.49,2035.739,1240.291,2035.739,1246.168z"/>
			<path style="fill:#578DDD;" d="M2202.72,1536.26h-335.063c0,0-20.444-124.057,54.966-165.951
				c18.158-10.091,40.974-13.563,65.835-11.133C2066.801,1366.849,2165.457,1433.234,2202.72,1536.26z"/>
			<path style="fill:#ED7D2B;" d="M1516.95,1051.262c-4.848,26.094-27.747,45.845-55.242,45.845v-31.35
				C1478.215,1066.415,1502,1064.62,1516.95,1051.262z"/>
			<path style="fill:#ED7D2B;" d="M1965.284,1290.684h-162.791c-5.865,0-10.678-4.812-10.678-10.677v-33.839
				c0-5.877,4.813-10.678,10.678-10.678h111.523C1923.713,1249.172,1941.931,1272.37,1965.284,1290.684z"/>
			<path style="fill:#5C96E3;" d="M2202.72,1536.26h-139.162c-83.993-42.625-78.858-145.459-75.1-177.084
				C2066.801,1366.849,2165.457,1433.234,2202.72,1536.26z"/>
			<path style="fill:#85B2EF;" d="M1452.971,1536.654c-9.492,16.758-27.495,28.058-48.131,28.058
				c-30.571,0-55.349-24.777-55.349-55.349c0-23.03,14.065-42.769,34.079-51.088
				C1388.381,1482.228,1403.87,1526.611,1452.971,1536.654z"/>
			<path style="fill:#ED7D2B;" d="M1457.22,1386.767c0.563,3.46,1.102,6.812,1.616,10.043c-0.156-0.071-0.312-0.155-0.479-0.228
				c-20.049-18.541-62.411-34.964-88.984-44.014c0.215-0.06,0.431-0.107,0.646-0.155l101.541-214.25
				c9.516-13.227,21.917-23.27,35.778-29.829c-17.309,29.123-65.057,122.261-53.948,247.778c0.766,8.618,1.808,17.392,3.148,26.321
				C1456.765,1383.87,1456.98,1385.318,1457.22,1386.767z"/>
		</g>
		<g>
			
				<rect x="1997.605" y="1031.2" transform="matrix(-1 -1.224647e-16 1.224647e-16 -1 4168.6709 2205.4287)" style="fill:#D3671E;" width="173.46" height="143.028"/>
			<rect x="2084.336" y="1031.204" style="fill:#F1A34F;" width="173.456" height="143.028"/>
			<polygon style="fill:#F1A34F;" points="1997.707,1137.956 2025.193,1137.956 2022.771,1130.222 2025.193,1124.695 
				1997.707,1124.695 			"/>
			<polygon style="fill:#E78B37;" points="2257.792,1126.029 2257.792,1174.232 2084.336,1174.232 2084.336,1031.204 
				2115.063,1031.204 			"/>
			<polygon style="opacity:0.4;fill:#D86713;" points="2257.795,1063.283 2230.309,1063.283 2232.729,1055.549 2230.309,1050.022 
				2257.795,1050.022 			"/>
			<polygon style="fill:#F1A34F;" points="2257.795,1151.217 2230.309,1151.217 2232.729,1143.482 2230.309,1137.956 
				2257.795,1137.956 			"/>
		</g>
		<g>
			<path style="fill:#FFB27D;" d="M1821.843,901.585c29.989,12.178,84.809-13.858,84.809-13.858s-18.198-16.109-21.664-46.615
				c-0.179-1.538-0.31-3.106-0.406-4.712c-3.161-1.125-9.122-3.247-15.499-5.512l-26.563,18.084c0,0-0.638,8.898,0.305,24.462
				c0.158,2.716,0.37,5.635,0.648,8.751C1829.687,888.37,1821.843,901.585,1821.843,901.585z"/>
			<path style="fill:#ED975D;" d="M1842.52,848.971c0,0-0.638,8.898,0.305,24.462c24.168-4.393,37.469-23.915,42.163-32.322
				c-0.179-1.538-0.31-3.106-0.406-4.712c-3.161-1.125-9.122-3.247-15.499-5.512L1842.52,848.971z"/>
			<path style="fill:#FFB27D;" d="M1837.616,861.931c0,0,51.647-1.683,50.104-33.83c-1.542-32.147,4.085-54.015-28.956-54.3
				c-33.041-0.285-38.854,12.289-40.949,23.145C1815.721,807.801,1824.142,861.54,1837.616,861.931z"/>
			<path style="fill:#2B478B;" d="M1884.987,841.111c0,0,2.017-10.689-3.802-17.745c0,0,3.755-10.486-0.277-12.836
				c-4.033-2.35-6.135,6.606-7.902,4.921c-1.768-1.685-9.583-9.612-11.988-20.075c-2.405-10.464-38.217-2.964-42.443-1.701
				c-4.226,1.262,23.761-50.963,53.984-38.595c30.224,12.369,32.497,27.886,29.007,40.46
				C1898.074,808.115,1898.388,838.525,1884.987,841.111z"/>
			<path style="fill:#6BB7BF;" d="M1934.391,1147.938c0,0-3.581,63.089-17.945,81.062c-14.364,17.972-289.672,10.997-289.672,10.997
				s-1.198-40.452,9.575-50.854c10.772-10.4,61.047-40.278,221.563-57.217L1934.391,1147.938z"/>
			<path style="fill:#F99746;" d="M1938.063,1015.891c-4.488,54.188,1.425,136.612-3.675,150.893
				c-4.393,12.317-54.463,4.991-74.44,0.886c-7.397-1.532-16.363-3.698-25.616-6.272c-25.807-7.17-53.937-17.416-56.952-25.029
				c-0.12-0.299-0.216-0.586-0.275-0.873c-0.288-1.102-0.228-2.143,0.047-3.185c0.743-2.872,3.064-5.913,4.405-11.191
				c0.467-1.855,0.814-3.986,0.934-6.488c0.467-9.815,0.443-21.223,0.778-33.504c0.036-1.125,0.072-2.262,0.107-3.399
				c0.024-1.532,0.048-3.195,0.228-4.716l0.013-0.563c0-0.287,0.012-0.574,0.023-0.862c0.431-15.142,1.316-31.05,2.334-46.838
				c0.323-4.92,0.671-9.815,1.054-14.651c0.119-1.712,0.263-3.411,0.395-5.1c0.264-3.159,0.526-6.296,0.814-9.384
				c2.25-24.275,5.29-45.869,9.3-59.515c6.561-22.252,21.031-36.76,34.198-47.389l9.528-7.337
				c10.629,2.083,23.198,0.694,34.569-4.13c12.293-5.255,16.542-9.013,18.685-7.589
				C1922.933,889.332,1943.365,949.637,1938.063,1015.891z"/>
			<path style="fill:#1C4575;" d="M1725.828,1447.553c0,0-2.435,39.271-10.032,39.834c-1.011,0.074-38.534,0.074-38.534,0.074
				l-47.901-0.277c0,0,0.313-11.542,14.315-13.982c14.002-2.439,37.438-12.28,45.92-30.786
				C1698.519,1422.947,1725.828,1447.553,1725.828,1447.553z"/>
			<path style="fill:#6BB7BF;" d="M1735.843,1450.111c0,0-9.265,7.123-28.13,8.032c-4.859,0.228-9.313-0.023-13.215-0.526
				c-10.401-1.317-16.901-4.321-16.901-4.321l-50.824-213.305c0,0,55.062-48.106,83.79-18.194
				c3.746,3.902,6.942,10.665,9.672,19.487C1738.452,1300.093,1735.843,1450.111,1735.843,1450.111z"/>
			<path style="fill:#ED7D2B;" d="M1857.912,974.702c0,0-35.646,130.508-76.356,146.416c0.467-1.855,0.814-3.986,0.934-6.488
				c0.467-9.815,0.443-21.223,0.778-33.504c0.036-1.125,0.072-2.262,0.107-3.399c0.024-1.532,0.048-3.195,0.228-4.716l0.013-0.563
				c0-0.287,0.012-0.574,0.023-0.862c0.431-15.142,1.316-31.05,2.334-46.838c0.323-4.92,0.671-9.815,1.054-14.651
				C1804.945,988.443,1829.268,972.882,1857.912,974.702z"/>
			<path style="fill:#FFB27D;" d="M1644.09,1024.976c0,0-15.521,1.196-19.512,0c-3.99-1.197-22.743-12.369-29.526-9.976
				c-6.783,2.394-23.94,19.95-19.551,27.931c0,0,7.98,0.199,15.362-7.382s15.362-2.395,14.563-1.396
				c-0.798,0.997-12.369,5.586-10.374,7.581c1.995,1.995,17.157,1.596,20.748-0.798c3.591-2.395,30.324,0.599,30.324,0.599
				L1644.09,1024.976z"/>
			<path style="fill:#F99746;" d="M1857.911,905.875c0,0-96.532,82.288-121.94,90.221s-115.184,25.381-115.184,25.381
				s-2.472,21.254,5.946,29.234c0,0,115.35-6.688,129.714-9.729c14.363-3.04,121.391-58.501,130.121-62.69
				C1895.298,974.103,1893.939,899.091,1857.911,905.875z"/>
			<path style="fill:#5AA9AD;" d="M1735.843,1450.111c0,0-9.265,7.123-28.13,8.032c-4.859,0.228-9.313-0.023-13.215-0.526
				c28.991-36.664,25.736-216.333,25.736-216.333C1738.452,1300.093,1735.843,1450.111,1735.843,1450.111z"/>
			<path style="fill:#F99746;" d="M1909.184,797.666v0.491c0,1.353-0.622,2.514-1.508,3.004c-0.3,0.168-0.623,0.264-0.945,0.264
				H1784.35c-1.353,0-2.454-1.473-2.454-3.268v-0.491c0-1.795,1.102-3.268,2.454-3.268l27.327-3.507
				c2.55-20.301,16.04-36.867,33.862-42.577c0,0,0.013,0,0.024,0c4.346-1.4,8.941-2.143,13.693-2.143
				c25.113,0,45.689,20.744,47.832,47.185c0.024,0.311,0.048,0.61,0.072,0.921c0.312,0.228,0.49,0.371,0.515,0.383
				C1908.562,795.152,1909.184,796.326,1909.184,797.666z"/>
			<path style="fill:#ED7D2B;" d="M1867.828,793.357c9.121-48.263-21.247-45.163-22.265-45.043c4.346-1.4,8.941-2.143,13.693-2.143
				c25.113,0,45.689,20.744,47.832,47.185H1867.828z"/>
		</g>
	</g>
	<path style="fill:#EDF4FF;" d="M2025.002,1617.934c0,0,100.456-25.315,128.801-55.928c28.344-30.613,52.834,4.081,34.466,23.469
		C2169.901,1604.863,2025.002,1617.934,2025.002,1617.934z"/>
	<path style="fill:#EDF4FF;" d="M2423.931,1549.879h-140.798c-3.47,0-6.309-2.838-6.309-6.308l0,0c0-3.47,2.839-6.308,6.309-6.308
		h140.798c3.47,0,6.308,2.838,6.308,6.308l0,0C2430.238,1547.041,2427.4,1549.879,2423.931,1549.879z"/>
	<path style="fill:#EDF4FF;" d="M2356.827,1521.727h-76.572c-1.887,0-3.431-1.543-3.431-3.43l0,0c0-1.887,1.544-3.431,3.431-3.431
		h76.572c1.887,0,3.431,1.544,3.431,3.431l0,0C2360.258,1520.184,2358.714,1521.727,2356.827,1521.727z"/>
	<path style="fill:#ED7D2B;" d="M903.995,1285.096c-44.816,80.769-113.719,165.363-113.719,165.363
		s-151.706-186.211-151.706-269.976c0-47.452,21.81-89.873,56.082-117.794c5.751,27.441,15.098,58.838,30.077,89.152
		c-3.475,8.391-5.392,17.495-5.392,27.085c0,39.186,31.755,70.816,70.94,70.816c5.273,0,10.545-0.597,15.458-1.797
		C832.216,1266.044,864.571,1279.344,903.995,1285.096z"/>
</g>
</svg>
